<?xml version="1.0" encoding="UTF-8" standalone="no"?>
<!DOCTYPE svg PUBLIC "-//W3C//DTD SVG 1.1//EN" "http://www.w3.org/Graphics/SVG/1.1/DTD/svg11.dtd">
<svg xmlns="http://www.w3.org/2000/svg" version="1.1" viewBox="0.00 0.00 1024.00 1024.00">
<g stroke-width="2.00" fill="none" stroke-linecap="butt">
<path stroke="#fcd8ce" vector-effect="non-scaling-stroke" d="
  M 304.69 896.47
  Q 306.61 900.58 310.24 906.51
  Q 321.24 924.52 335.17 939.88
  Q 353.99 960.65 380.71 966.71
  Q 394.92 969.94 407.29 964.29
  C 415.82 960.39 422.30 953.13 427.49 945.74
  Q 440.73 926.87 453.91 908.39
  Q 455.38 906.32 456.70 904.71"
/>
<path stroke="#d6dfeb" vector-effect="non-scaling-stroke" d="
  M 456.70 904.71
  Q 459.54 903.83 461.89 902.38
  Q 463.86 901.17 465.65 900.20
  Q 493.68 885.00 526.51 883.34
  A 0.61 0.60 -80.9 0 0 527.04 882.95
  L 527.14 882.65
  A 0.16 0.16 0.0 0 0 527.00 882.43
  Q 516.08 881.51 506.47 880.90
  C 499.73 880.46 492.38 877.24 492.74 869.40
  Q 493.11 861.47 499.47 855.35
  Q 507.84 847.29 513.05 838.40
  Q 518.60 828.91 525.70 818.73
  C 527.70 815.87 534.89 805.94 528.04 804.18
  Q 527.50 804.05 527.00 804.29
  Q 524.21 805.62 522.04 807.92
  C 516.67 813.58 511.15 820.96 504.59 824.63
  Q 500.08 827.17 493.50 827.42"
/>
<path stroke="#fcd8ce" vector-effect="non-scaling-stroke" d="
  M 493.50 827.42
  Q 500.23 804.80 505.59 780.35
  Q 514.93 737.76 531.58 663.42
  Q 534.11 652.10 536.53 640.75
  Q 536.67 640.13 537.01 640.19"
/>
<path stroke="#98a3b1" vector-effect="non-scaling-stroke" d="
  M 537.01 640.19
  Q 543.70 638.17 549.25 635.24
  C 563.10 627.93 575.71 617.80 586.43 606.38
  Q 592.02 600.41 597.10 592.37
  Q 602.89 583.19 604.52 572.67"
/>
<path stroke="#f0f3f7" vector-effect="non-scaling-stroke" d="
  M 604.52 572.67
  L 644.95 581.59
  A 1.03 1.02 -12.9 0 1 645.51 581.94
  Q 645.90 582.45 645.73 582.87"
/>
<path stroke="#b1ccfb" vector-effect="non-scaling-stroke" d="
  M 645.73 582.87
  Q 650.75 596.05 655.87 609.30
  Q 664.17 630.73 666.98 651.50
  C 668.23 660.74 669.24 670.00 670.70 679.23
  Q 673.92 699.58 677.08 719.96"
/>
<path stroke="#f0f3f7" vector-effect="non-scaling-stroke" d="
  M 677.08 719.96
  C 672.07 727.31 673.99 735.23 674.76 743.70
  Q 675.32 749.99 676.11 756.32"
/>
<path stroke="#98a3b1" vector-effect="non-scaling-stroke" d="
  M 676.11 756.32
  Q 675.69 765.76 674.39 775.18
  Q 674.33 775.64 674.06 775.87
  A 0.29 0.28 65.5 0 1 673.59 775.69
  Q 669.92 746.07 664.89 717.39
  Q 663.73 710.82 659.26 690.51"
/>
<path stroke="#f0f3f7" vector-effect="non-scaling-stroke" d="
  M 659.26 690.51
  Q 661.02 682.03 661.16 677.49
  Q 661.53 665.83 659.01 650.65
  Q 658.98 650.43 658.76 650.43
  L 658.32 650.42
  Q 658.11 650.41 658.12 650.62
  Q 658.64 676.83 658.69 685.47
  Q 658.69 686.14 657.74 686.69"
/>
<path stroke="#98a3b1" vector-effect="non-scaling-stroke" d="
  M 657.74 686.69
  Q 656.47 686.44 657.03 688.90
  Q 666.54 730.44 671.62 772.76
  Q 672.59 780.85 672.88 784.95"
/>
<path stroke="#f0f3f7" vector-effect="non-scaling-stroke" d="
  M 672.88 784.95
  C 672.99 787.62 671.92 790.23 671.60 792.18
  C 670.97 796.00 669.92 799.77 669.45 803.58
  Q 668.00 815.42 665.80 829.08
  Q 664.97 834.24 662.29 837.25
  C 657.56 842.55 651.93 847.67 646.10 851.99
  C 628.94 864.70 609.34 875.14 588.30 879.55
  Q 588.23 879.57 588.16 879.61
  Q 588.01 879.70 588.19 879.67
  Q 594.51 878.54 601.17 876.55
  Q 622.00 870.30 646.63 860.13
  Q 658.60 855.19 676.20 853.98"
/>
<path stroke="#98a3b1" vector-effect="non-scaling-stroke" d="
  M 676.20 853.98
  L 674.83 876.82
  A 0.53 0.53 0.0 0 0 675.44 877.38
  L 675.73 877.33
  Q 676.56 877.20 676.60 876.35
  L 677.45 854.68"
/>
<path stroke="#fcd8ce" vector-effect="non-scaling-stroke" d="
  M 677.45 854.68
  Q 690.86 856.59 700.30 859.70
  Q 720.96 866.52 731.19 869.30
  C 751.52 874.82 771.00 877.95 791.98 877.23
  Q 793.52 877.18 794.98 876.28"
/>
<path stroke="#f0f3f7" vector-effect="non-scaling-stroke" d="
  M 794.98 876.28
  Q 796.96 877.14 799.27 876.53
  C 820.78 870.89 840.85 860.26 854.59 842.72
  Q 873.74 818.27 891.31 790.79
  Q 909.03 763.08 922.86 730.92
  Q 926.97 721.37 930.77 710.02
  C 941.96 676.72 946.77 640.56 930.39 608.34
  Q 924.50 596.75 915.70 588.92
  C 905.49 579.83 895.47 583.39 884.58 588.19
  Q 875.56 592.17 865.19 591.36
  C 856.18 590.65 843.36 584.33 848.10 573.21
  Q 850.05 568.63 851.46 563.79
  Q 855.44 550.20 858.52 532.61
  Q 866.74 485.55 875.66 434.99
  C 879.76 411.76 884.40 388.44 888.70 365.70
  Q 891.19 352.57 892.18 341.22
  Q 895.73 300.36 869.80 271.85
  C 855.40 256.02 836.57 246.89 817.87 237.35
  Q 806.06 231.32 796.98 224.09
  Q 787.90 216.85 781.52 205.50
  C 773.11 190.52 770.38 173.03 761.87 157.91
  C 745.96 129.65 718.99 108.89 688.59 98.39
  Q 653.80 86.38 615.13 93.91
  C 596.77 97.48 579.78 103.14 561.60 108.94
  Q 549.70 112.73 531.19 114.62
  C 526.21 115.13 521.20 114.61 516.13 114.70
  C 498.31 115.02 480.38 110.28 465.17 101.57
  C 456.07 96.37 447.43 90.46 438.02 86.01
  C 411.15 73.31 381.91 75.02 353.36 83.63
  Q 338.90 87.98 318.68 94.90
  Q 285.55 106.24 254.20 117.48
  Q 231.70 125.54 211.58 134.33
  C 185.44 145.76 159.55 161.14 141.92 183.29
  C 113.94 218.43 110.51 265.80 122.24 307.81
  C 127.98 328.38 135.30 345.98 143.31 364.99
  C 149.07 378.64 152.14 396.60 138.07 406.77
  Q 132.70 410.65 128.08 414.53
  Q 118.84 422.31 111.65 435.43
  Q 101.50 453.94 98.11 473.89
  C 93.65 500.15 96.10 527.72 99.74 555.53
  C 100.56 561.78 100.53 566.54 96.36 570.64
  C 86.01 580.83 73.48 590.96 71.98 606.51
  C 70.79 618.85 78.73 627.58 90.04 631.04
  Q 96.95 633.16 105.28 633.90
  C 107.48 634.10 111.02 634.82 111.43 637.44
  Q 112.02 641.19 112.49 645.47
  C 114.00 659.24 117.44 672.86 119.82 687.11
  C 121.80 698.97 122.47 709.35 121.41 720.32
  Q 119.24 742.89 114.55 774.72
  Q 111.11 798.12 111.55 819.36
  Q 112.05 842.89 122.13 863.67
  C 133.25 886.61 156.42 902.02 180.11 908.66
  Q 222.80 920.60 266.13 909.13
  Q 284.47 904.28 304.69 896.47"
/>
<path stroke="#eecdc6" vector-effect="non-scaling-stroke" d="
  M 794.98 876.28
  Q 795.78 873.36 795.04 869.69
  Q 791.26 851.07 787.21 836.97
  Q 784.71 828.22 781.48 819.70"
/>
<path stroke="#dab6b1" vector-effect="non-scaling-stroke" d="
  M 781.48 819.70
  Q 782.02 819.35 781.87 819.28"
/>
<path stroke="#8a98a9" vector-effect="non-scaling-stroke" d="
  M 781.87 819.28
  Q 795.90 812.23 805.87 800.49"
/>
<path stroke="#a3c1f3" vector-effect="non-scaling-stroke" d="
  M 805.87 800.49
  L 783.88 738.01"
/>
<path stroke="#c8d4e3" vector-effect="non-scaling-stroke" d="
  M 783.88 738.01
  C 784.28 735.65 786.13 733.79 785.86 730.82
  Q 785.67 728.73 784.42 727.14
  Q 782.28 724.41 778.64 723.55"
/>
<path stroke="#a3c1f3" vector-effect="non-scaling-stroke" d="
  M 778.64 723.55
  L 771.75 705.63"
/>
<path stroke="#c8d4e3" vector-effect="non-scaling-stroke" d="
  M 771.75 705.63
  Q 781.24 703.72 784.01 703.00
  Q 792.79 700.71 800.76 695.24
  C 804.19 692.88 805.75 689.22 803.54 685.32
  C 798.26 675.99 784.28 674.37 774.73 676.23
  Q 767.46 677.64 762.15 680.32"
/>
<path stroke="#a3c1f3" vector-effect="non-scaling-stroke" d="
  M 762.15 680.32
  L 748.54 645.81"
/>
<path stroke="#c8d4e3" vector-effect="non-scaling-stroke" d="
  M 748.54 645.81
  Q 760.45 652.20 772.37 654.43
  C 778.80 655.63 789.76 656.43 795.18 652.42
  C 800.07 648.80 797.70 642.20 794.17 638.49
  C 786.53 630.46 775.52 627.48 764.34 627.50
  Q 758.93 627.51 753.07 629.96
  Q 747.54 632.27 742.59 636.06"
/>
<path stroke="#a3c1f3" vector-effect="non-scaling-stroke" d="
  M 742.59 636.06
  Q 733.80 623.24 722.65 614.60
  Q 716.11 609.53 709.19 604.95
  Q 709.10 604.90 709.06 604.81
  Q 708.98 604.62 709.02 604.54"
/>
<path stroke="#c8d4e3" vector-effect="non-scaling-stroke" d="
  M 709.02 604.54
  C 708.56 602.82 708.58 601.21 707.95 599.56
  Q 704.44 590.41 699.31 582.95
  C 697.27 579.99 693.15 577.42 690.18 580.84
  Q 689.04 582.15 689.00 584.97
  Q 688.92 589.90 690.19 595.43"
/>
<path stroke="#a3c1f3" vector-effect="non-scaling-stroke" d="
  M 690.19 595.43
  Q 673.69 588.76 657.53 584.56
  Q 651.95 583.11 646.23 582.22
  Q 645.99 582.18 645.73 582.87"
/>
<path stroke="#8a98a9" vector-effect="non-scaling-stroke" d="
  M 604.52 572.67
  L 583.49 567.38"
/>
<path stroke="#eecdc6" vector-effect="non-scaling-stroke" d="
  M 583.49 567.38
  Q 583.48 567.27 583.34 567.07
  A 0.79 0.76 75.8 0 0 582.84 566.76
  Q 578.77 566.09 574.31 565.26
  Q 568.67 564.21 569.39 558.50
  Q 569.88 554.60 570.02 551.54"
/>
<path stroke="#dab6b1" vector-effect="non-scaling-stroke" d="
  M 570.02 551.54
  Q 572.73 539.51 580.96 531.47
  Q 584.29 528.21 587.61 525.01"
/>
<path stroke="#eecdc6" vector-effect="non-scaling-stroke" d="
  M 587.61 525.01
  Q 594.87 519.18 601.94 513.21
  Q 602.20 512.99 602.29 512.68
  Q 602.46 512.11 602.88 511.71
  Q 607.90 506.89 614.16 501.96
  Q 614.29 501.85 614.47 501.86
  Q 614.73 501.87 614.51 502.00
  Q 613.60 502.53 612.83 503.42
  Q 612.74 503.52 612.84 503.62
  L 612.84 503.62
  Q 612.94 503.71 613.03 503.63
  Q 622.94 495.05 632.82 486.58
  Q 636.68 483.26 641.02 480.25
  Q 647.38 475.84 648.43 467.54
  C 649.00 463.03 648.69 458.36 644.98 455.25
  Q 641.39 452.24 637.32 450.30
  Q 621.77 442.89 606.64 433.32
  Q 603.59 431.39 599.92 429.57
  Q 594.88 427.07 589.30 422.07"
/>
<path stroke="#efd5cf" vector-effect="non-scaling-stroke" d="
  M 589.30 422.07
  Q 586.76 416.87 583.37 406.42
  Q 578.73 392.09 566.49 367.78
  Q 564.41 363.66 558.05 353.45
  Q 556.36 350.72 554.76 351.10"
/>
<path stroke="#f0f3f7" vector-effect="non-scaling-stroke" d="
  M 554.76 351.10
  Q 551.36 349.13 549.00 345.59"
/>
<path stroke="#dab6b1" vector-effect="non-scaling-stroke" d="
  M 549.00 345.59
  L 551.23 345.72"
/>
<path stroke="#eecdc6" vector-effect="non-scaling-stroke" d="
  M 551.23 345.72
  L 552.52 345.70"
/>
<path stroke="#8a98a9" vector-effect="non-scaling-stroke" d="
  M 552.52 345.70
  Q 552.94 346.11 553.37 346.16
  A 0.57 0.54 -70.0 0 0 553.90 345.90
  Q 557.21 340.44 560.71 334.88
  Q 569.77 320.51 575.51 302.41
  Q 580.54 286.52 576.92 271.94
  C 572.49 254.13 558.08 238.45 541.95 230.69
  C 522.77 221.46 498.50 223.83 482.30 239.09
  Q 478.73 242.46 475.27 246.02
  C 463.71 257.92 448.17 264.01 432.22 268.44
  Q 413.12 273.75 394.14 276.37
  Q 380.81 278.21 372.31 284.01
  Q 350.86 298.65 351.80 325.51
  C 351.84 326.89 352.19 328.41 352.35 329.79
  Q 352.42 330.40 351.81 330.45
  Q 337.10 331.54 329.39 343.03
  C 325.19 349.29 323.94 358.43 325.66 365.63
  Q 328.96 379.44 341.24 385.87
  A 0.39 0.39 0.0 0 1 341.29 386.53
  Q 333.12 392.36 334.26 403.57
  C 335.41 414.91 343.15 424.51 355.80 421.31
  Q 356.85 421.05 356.60 422.10
  C 355.61 426.27 354.10 431.30 356.17 435.40
  Q 359.33 441.65 366.96 438.50
  A 1.04 1.03 63.1 0 1 368.23 438.92
  C 382.99 463.08 408.54 478.26 435.65 485.54
  Q 440.52 486.85 445.87 488.30"
/>
<path stroke="#dab6b1" vector-effect="non-scaling-stroke" d="
  M 445.87 488.30
  L 446.32 492.36"
/>
<path stroke="#eecdc6" vector-effect="non-scaling-stroke" d="
  M 446.32 492.36
  C 446.36 499.61 447.40 507.45 447.46 513.25
  Q 447.59 526.53 447.03 537.77
  Q 446.65 545.63 445.40 550.02
  Q 444.41 553.49 440.78 555.28
  Q 430.39 560.40 425.72 562.45"
/>
<path stroke="#8a98a9" vector-effect="non-scaling-stroke" d="
  M 425.72 562.45
  L 405.38 571.08"
/>
<path stroke="#f0f3f7" vector-effect="non-scaling-stroke" d="
  M 405.38 571.08
  Q 391.89 576.06 376.92 579.18
  Q 365.52 581.56 354.11 583.86
  C 353.65 583.95 353.23 584.31 352.85 584.58"
/>
<path stroke="#b2caf1" vector-effect="non-scaling-stroke" d="
  M 352.85 584.58
  Q 352.63 584.53 352.36 584.45
  Q 352.12 584.38 351.89 584.41
  Q 327.65 588.44 305.71 598.32"
/>
<path stroke="#c8d4e3" vector-effect="non-scaling-stroke" d="
  M 305.71 598.32
  Q 304.26 598.62 304.07 597.91
  Q 302.83 593.33 301.09 590.69
  C 296.02 583.00 285.23 584.00 281.45 592.26
  Q 280.38 594.59 279.87 600.46
  Q 279.09 609.49 278.37 618.54"
/>
<path stroke="#b2caf1" vector-effect="non-scaling-stroke" d="
  M 278.37 618.54
  Q 275.56 622.78 272.88 627.07
  Q 266.11 637.89 262.90 650.19
  C 262.34 652.33 261.85 655.83 260.95 658.72"
/>
<path stroke="#c8d4e3" vector-effect="non-scaling-stroke" d="
  M 260.95 658.72
  Q 252.79 654.12 248.06 652.67
  C 241.40 650.63 234.31 648.52 228.21 645.11
  C 219.30 640.11 210.20 633.55 199.43 637.59
  Q 193.33 639.87 192.85 647.06
  C 192.42 653.54 194.16 662.33 199.71 666.23
  Q 207.79 671.90 220.05 673.02
  C 229.51 673.89 236.81 673.32 245.96 670.53
  Q 251.58 668.82 257.22 667.21
  Q 259.97 666.43 259.78 668.28"
/>
<path stroke="#b2caf1" vector-effect="non-scaling-stroke" d="
  M 259.78 668.28
  Q 257.43 686.61 256.99 706.10"
/>
<path stroke="#c8d4e3" vector-effect="non-scaling-stroke" d="
  M 256.99 706.10
  Q 249.08 703.99 241.51 703.02
  C 236.13 702.33 228.56 703.28 228.31 710.26
  C 228.05 717.23 232.42 720.87 238.38 722.69
  Q 246.75 725.24 255.28 725.09
  Q 255.79 725.08 255.93 725.58
  Q 256.20 726.55 255.96 727.72"
/>
<path stroke="#b2caf1" vector-effect="non-scaling-stroke" d="
  M 255.96 727.72
  C 254.65 753.10 254.21 779.61 253.46 814.25
  Q 253.45 814.97 254.51 815.14"
/>
<path stroke="#8a98a9" vector-effect="non-scaling-stroke" d="
  M 254.51 815.14
  Q 254.03 815.14 254.27 815.75
  A 0.49 0.45 87.6 0 0 254.54 816.02
  Q 268.33 821.72 282.91 824.18"
/>
<path stroke="#eecdc6" vector-effect="non-scaling-stroke" d="
  M 282.91 824.18
  L 283.15 824.69
  Q 283.32 825.07 283.36 825.49
  Q 283.56 827.96 284.14 830.27
  C 286.88 841.14 289.00 851.97 292.15 862.70
  Q 295.64 874.58 298.16 881.63
  Q 299.69 885.89 304.69 896.47"
/>
<path stroke="#967d80" vector-effect="non-scaling-stroke" d="
  M 583.49 567.38
  Q 568.37 592.65 543.47 608.39"
/>
<path stroke="#e69b88" vector-effect="non-scaling-stroke" d="
  M 570.02 551.54
  Q 563.29 554.50 556.24 555.34
  Q 555.29 555.45 555.45 553.95"
/>
<path stroke="#e69b88" vector-effect="non-scaling-stroke" d="
  M 534.22 332.69
  C 538.49 336.33 541.51 340.19 547.44 342.06
  Q 548.99 342.55 549.77 343.36
  Q 550.81 344.46 551.23 345.72"
/>
<path stroke="#e8c1b9" vector-effect="non-scaling-stroke" d="
  M 549.00 345.59
  L 548.07 345.12"
/>
<path stroke="#82656b" vector-effect="non-scaling-stroke" d="
  M 548.07 345.12
  Q 548.57 345.19 548.81 345.07
  Q 549.23 344.87 548.87 344.57
  C 545.99 342.14 541.40 342.68 538.86 345.63
  Q 535.69 349.29 533.56 353.41
  Q 533.49 353.54 533.45 353.68
  Q 533.40 353.87 533.42 354.04
  Q 533.47 354.66 532.86 354.55
  Q 532.23 354.45 532.16 355.00"
/>
<path stroke="#89ade7" vector-effect="non-scaling-stroke" d="
  M 742.59 636.06
  L 748.54 645.81"
/>
<path stroke="#89ade7" vector-effect="non-scaling-stroke" d="
  M 762.15 680.32
  L 771.75 705.63"
/>
<path stroke="#89ade7" vector-effect="non-scaling-stroke" d="
  M 778.64 723.55
  L 783.88 738.01"
/>
<path stroke="#4b71ad" vector-effect="non-scaling-stroke" d="
  M 805.87 800.49
  Q 790.48 797.54 775.35 803.11"
/>
<path stroke="#9b8fb5" vector-effect="non-scaling-stroke" d="
  M 775.35 803.11
  Q 774.80 802.40 773.84 803.37
  Q 773.25 803.96 772.74 804.19
  Q 758.18 810.83 739.01 818.32
  Q 716.96 826.93 698.54 832.74
  Q 688.24 835.99 677.69 839.14"
/>
<path stroke="#4b71ad" vector-effect="non-scaling-stroke" d="
  M 677.69 839.14
  C 677.42 828.76 677.41 818.34 676.57 808.01
  Q 675.69 797.17 674.88 786.18
  Q 674.55 781.66 675.35 777.32
  Q 676.49 771.19 677.09 765.41
  Q 678.83 748.74 679.38 731.58
  Q 679.46 729.00 679.33 726.50
  Q 679.20 724.00 677.58 724.97"
/>
<path stroke="#a3c1f3" vector-effect="non-scaling-stroke" d="
  M 677.58 724.97
  L 677.08 719.96"
/>
<path stroke="#e69b88" vector-effect="non-scaling-stroke" d="
  M 781.48 819.70
  Q 777.71 820.73 766.62 824.33
  Q 732.36 835.44 680.57 851.09
  Q 679.75 851.34 677.72 851.04"
/>
<path stroke="#967d80" vector-effect="non-scaling-stroke" d="
  M 467.16 605.28
  Q 444.04 586.38 425.72 562.45"
/>
<path stroke="#72a3f5" vector-effect="non-scaling-stroke" d="
  M 382.03 648.42
  Q 381.12 647.89 379.37 647.67
  Q 378.85 647.60 378.62 647.14
  Q 374.74 639.30 368.43 632.88
  A 0.46 0.46 0.0 0 0 367.64 633.16
  L 366.79 641.58"
/>
<path stroke="#5a79ab" vector-effect="non-scaling-stroke" d="
  M 366.79 641.58
  Q 371.56 651.50 377.60 660.21
  C 379.96 663.61 381.76 667.18 384.22 670.54
  A 0.36 0.36 0.0 0 0 384.84 670.47
  Q 385.01 670.09 384.76 669.28"
/>
<path stroke="#5a79ab" vector-effect="non-scaling-stroke" d="
  M 380.51 784.11
  Q 378.02 785.73 375.67 790.43"
/>
<path stroke="#aa97b3" vector-effect="non-scaling-stroke" d="
  M 375.67 790.43
  Q 344.33 790.70 312.99 794.96
  Q 296.06 797.27 279.69 801.81"
/>
<path stroke="#5a79ab" vector-effect="non-scaling-stroke" d="
  M 279.69 801.81
  Q 266.12 806.70 254.51 815.14"
/>
<path stroke="#98b5e5" vector-effect="non-scaling-stroke" d="
  M 255.96 727.72
  L 256.99 706.10"
/>
<path stroke="#98b5e5" vector-effect="non-scaling-stroke" d="
  M 259.78 668.28
  Q 261.17 663.30 260.95 658.72"
/>
<path stroke="#98b5e5" vector-effect="non-scaling-stroke" d="
  M 278.37 618.54
  Q 280.38 617.37 282.73 614.49
  C 285.09 611.60 289.30 608.51 293.01 606.18
  Q 299.23 602.27 305.71 598.32"
/>
<path stroke="#d4b9ba" vector-effect="non-scaling-stroke" d="
  M 493.50 827.42
  Q 489.88 839.40 488.67 842.93
  Q 480.86 865.77 465.70 889.32
  Q 465.65 889.41 461.79 894.77
  Q 458.49 899.36 456.70 904.71"
/>
<path stroke="#967d80" vector-effect="non-scaling-stroke" d="
  M 282.91 824.18
  L 283.05 823.94
  Q 283.15 823.77 283.12 823.57
  L 280.72 808.85"
/>
<path stroke="#e69b88" vector-effect="non-scaling-stroke" d="
  M 280.72 808.85
  Q 310.12 801.86 341.25 800.55
  Q 357.85 799.86 370.76 800.00"
/>
<path stroke="#967d80" vector-effect="non-scaling-stroke" d="
  M 370.76 800.00
  Q 366.99 807.99 366.61 815.75
  Q 366.57 816.63 367.59 817.24"
/>
<path stroke="#967d80" vector-effect="non-scaling-stroke" d="
  M 552.52 345.70
  L 544.15 332.56
  Q 543.87 332.12 543.36 332.23
  Q 538.77 333.27 534.22 332.69"
/>
<path stroke="#82656b" vector-effect="non-scaling-stroke" d="
  M 534.22 332.69
  L 522.26 329.34"
/>
<path stroke="#978589" vector-effect="non-scaling-stroke" d="
  M 522.26 329.34
  Q 520.88 327.86 521.57 326.18
  C 522.89 322.96 528.15 325.26 530.21 326.19
  C 533.28 327.57 537.17 327.29 540.45 326.89
  A 0.31 0.31 0.0 0 0 540.68 326.42
  Q 535.96 318.16 530.16 312.36"
/>
<path stroke="#82656b" vector-effect="non-scaling-stroke" d="
  M 530.16 312.36
  Q 528.68 309.65 527.24 308.91
  Q 526.76 308.66 526.27 308.90
  Q 513.25 315.10 497.44 312.63
  C 494.01 312.09 490.84 310.58 487.33 310.16
  Q 480.08 309.31 472.33 313.79
  C 469.92 315.18 468.06 316.84 467.56 319.75
  C 465.79 330.14 463.34 340.19 459.85 350.40
  Q 457.30 357.86 454.78 361.77
  Q 449.51 369.98 448.24 372.76
  Q 442.36 385.63 447.04 399.38"
/>
<path stroke="#978589" vector-effect="non-scaling-stroke" d="
  M 447.04 399.38
  Q 447.94 401.95 451.16 407.90
  Q 453.14 411.58 451.08 415.26
  C 447.86 420.99 442.56 419.12 438.59 415.54
  Q 430.48 408.23 422.22 400.92
  C 417.29 396.57 412.90 394.19 406.62 393.73
  C 397.15 393.03 388.97 396.63 386.40 406.41
  C 382.22 422.35 393.33 437.83 405.39 447.01
  Q 420.64 458.62 440.51 456.94"
/>
<path stroke="#82656b" vector-effect="non-scaling-stroke" d="
  M 440.51 456.94
  L 445.87 488.30"
/>
<path stroke="#e69b88" vector-effect="non-scaling-stroke" d="
  M 488.87 548.48
  Q 485.31 546.53 482.61 543.16
  Q 465.05 521.22 451.07 499.42
  Q 448.73 495.77 446.32 492.36"
/>
<path stroke="#82656b" vector-effect="non-scaling-stroke" d="
  M 781.87 819.28
  Q 781.78 819.39 781.46 819.13
  Q 781.30 819.00 781.22 818.78
  Q 778.09 810.97 775.35 803.11"
/>
<path stroke="#e69b88" vector-effect="non-scaling-stroke" d="
  M 587.61 525.01
  Q 589.62 521.79 590.67 518.22
  Q 591.65 514.92 592.79 513.33
  Q 594.62 510.77 597.20 508.20
  Q 606.02 499.41 609.99 495.73
  Q 612.93 493.00 613.78 490.99"
/>
<path stroke="#fbbaa6" vector-effect="non-scaling-stroke" d="
  M 613.78 490.99
  Q 616.37 486.30 619.57 481.33
  C 622.39 476.96 621.14 472.22 617.72 468.33
  Q 614.25 464.38 611.79 460.00
  A 0.85 0.84 53.1 0 1 611.93 458.99
  Q 612.22 458.69 612.64 458.70
  Q 613.03 458.71 613.32 458.97
  Q 618.87 463.92 624.66 468.56
  C 630.84 473.53 639.07 478.35 644.16 468.34
  Q 644.62 467.44 644.08 466.59
  C 642.66 464.35 641.03 462.77 638.82 461.32
  Q 631.94 456.81 629.20 454.79
  Q 616.70 445.53 603.81 436.79
  Q 599.65 433.97 597.32 433.43
  C 592.33 432.27 588.05 434.64 584.19 438.01"
/>
<path stroke="#e69b88" vector-effect="non-scaling-stroke" d="
  M 584.19 438.01
  Q 586.03 435.04 582.30 437.08
  C 580.67 437.97 579.03 439.62 577.87 441.02
  Q 573.58 446.13 568.95 451.99
  Q 564.42 457.70 560.70 464.39
  Q 560.03 465.59 560.70 465.53"
/>
<path stroke="#fbbaa6" vector-effect="non-scaling-stroke" d="
  M 560.70 465.53
  C 555.90 471.44 548.62 475.38 541.93 478.66
  Q 530.60 484.21 522.60 489.84
  Q 516.25 494.30 513.29 496.00"
/>
<path stroke="#e69b88" vector-effect="non-scaling-stroke" d="
  M 513.29 496.00
  Q 516.36 490.81 520.59 486.66
  A 1.23 1.23 0.0 0 0 519.56 484.57
  Q 519.42 484.59 519.26 484.61"
/>
<path stroke="#c0d5f9" vector-effect="non-scaling-stroke" d="
  M 404.96 747.97
  Q 405.60 744.93 405.74 741.75
  C 406.54 723.52 404.67 706.80 396.54 689.50
  Q 394.08 684.27 384.76 669.28"
/>
<path stroke="#98a3b1" vector-effect="non-scaling-stroke" d="
  M 384.76 669.28
  Q 384.93 669.18 385.10 669.08"
/>
<path stroke="#b1ccfb" vector-effect="non-scaling-stroke" d="
  M 385.10 669.08
  L 382.03 648.42"
/>
<path stroke="#c0d5f9" vector-effect="non-scaling-stroke" d="
  M 382.03 648.42
  Q 378.10 618.19 360.00 593.75
  Q 356.55 589.08 352.85 584.58"
/>
<path stroke="#89ade7" vector-effect="non-scaling-stroke" d="
  M 709.02 604.54
  L 690.19 595.43"
/>
<path stroke="#967d80" vector-effect="non-scaling-stroke" d="
  M 537.01 640.19
  Q 536.53 639.64 536.79 638.52
  Q 537.74 634.47 538.70 630.26"
/>
<path stroke="#e7a391" vector-effect="non-scaling-stroke" d="
  M 522.26 329.34
  Q 521.51 333.30 521.53 337.33
  Q 521.54 340.97 523.10 344.04
  C 525.42 348.60 529.61 351.69 532.16 355.00"
/>
<path stroke="#978589" vector-effect="non-scaling-stroke" d="
  M 532.16 355.00
  Q 532.83 356.26 533.68 356.88"
/>
<path stroke="#fde0d7" vector-effect="non-scaling-stroke" d="
  M 533.68 356.88
  Q 535.66 357.29 539.26 357.31
  Q 545.04 357.34 549.97 355.97
  C 552.60 355.24 553.60 353.35 554.76 351.10"
/>
<path stroke="#fbbaa6" vector-effect="non-scaling-stroke" d="
  M 589.30 422.07
  C 582.63 419.85 577.58 423.40 573.11 427.97
  C 556.59 444.84 541.95 463.55 526.12 480.12
  Q 524.11 482.22 519.26 484.61"
/>
<path stroke="#e7a391" vector-effect="non-scaling-stroke" d="
  M 519.26 484.61
  Q 506.65 486.96 493.74 488.20
  Q 481.64 489.36 471.55 482.87
  C 462.14 476.81 452.43 466.71 447.91 455.86
  A 0.60 0.59 -17.3 0 0 447.24 455.51
  L 440.51 456.94"
/>
<path stroke="#98a3b1" vector-effect="non-scaling-stroke" d="
  M 461.04 622.88
  Q 457.97 621.73 456.79 620.97
  Q 443.37 612.32 431.19 600.56
  Q 416.71 586.59 405.38 571.08"
/>
<path stroke="#8a98a9" vector-effect="non-scaling-stroke" d="
  M 676.11 756.32
  Q 677.33 746.56 677.37 739.50
  Q 677.44 728.24 677.58 724.97"
/>
<path stroke="#82656b" vector-effect="non-scaling-stroke" d="
  M 677.69 839.14
  L 677.72 851.04"
/>
<path stroke="#967d80" vector-effect="non-scaling-stroke" d="
  M 677.72 851.04
  L 677.45 854.68"
/>
<path stroke="#8a98a9" vector-effect="non-scaling-stroke" d="
  M 676.20 853.98
  Q 676.99 819.01 672.88 784.95"
/>
<path stroke="#e7a391" vector-effect="non-scaling-stroke" d="
  M 613.78 490.99
  Q 611.94 491.86 610.74 492.01
  C 608.09 492.33 600.30 493.28 598.12 491.44
  A 1.46 1.44 17.4 0 1 597.61 490.48
  C 597.20 486.68 601.69 484.00 604.40 481.94
  A 1.36 1.36 0.0 0 0 604.76 480.21
  Q 603.72 478.30 602.15 476.97
  A 0.83 0.83 0.0 0 0 600.86 477.26
  C 594.77 490.82 588.93 505.12 581.16 517.67
  Q 576.89 524.57 573.23 528.24
  Q 567.19 534.30 560.93 540.55
  C 556.65 544.83 556.86 548.85 555.45 553.95"
/>
<path stroke="#fbbaa6" vector-effect="non-scaling-stroke" d="
  M 555.45 553.95
  Q 552.89 564.15 551.06 574.52
  Q 550.02 580.38 544.91 599.64
  Q 544.21 602.27 543.47 608.39"
/>
<path stroke="#978589" vector-effect="non-scaling-stroke" d="
  M 543.47 608.39
  L 538.70 630.26"
/>
<path stroke="#fbbaa6" vector-effect="non-scaling-stroke" d="
  M 538.70 630.26
  Q 533.32 627.54 527.38 629.25
  Q 526.64 629.46 526.28 630.14
  Q 524.09 634.19 522.70 639.95
  Q 518.97 655.35 515.09 670.72
  Q 512.98 679.05 511.08 686.13
  Q 503.72 713.56 496.92 739.19
  Q 492.18 757.04 487.83 770.64
  Q 481.56 790.21 467.12 809.41
  Q 459.70 819.26 447.25 824.29
  Q 412.45 838.37 376.53 851.99
  Q 373.33 853.21 370.02 853.84
  Q 369.56 853.93 369.18 853.65
  C 365.05 850.72 364.72 845.83 364.78 841.11
  Q 364.93 828.90 367.59 817.24"
/>
<path stroke="#978589" vector-effect="non-scaling-stroke" d="
  M 367.59 817.24
  Q 369.44 807.06 373.44 797.80
  C 375.23 793.67 378.32 788.83 380.51 784.11"
/>
<path stroke="#bfb7d1" vector-effect="non-scaling-stroke" d="
  M 380.51 784.11
  Q 390.73 769.33 401.12 754.38
  Q 403.24 751.31 404.96 747.97"
/>
<path stroke="#fde0d7" vector-effect="non-scaling-stroke" d="
  M 404.96 747.97
  Q 382.11 732.79 405.06 748.08
  Q 405.19 748.17 405.27 748.04
  Q 408.58 743.42 411.54 737.93
  C 429.63 704.33 443.82 670.32 457.06 633.39
  Q 457.85 631.17 458.61 628.91
  Q 459.64 625.81 461.04 622.88"
/>
<path stroke="#978589" vector-effect="non-scaling-stroke" d="
  M 461.04 622.88
  L 467.16 605.28"
/>
<path stroke="#fbbaa6" vector-effect="non-scaling-stroke" d="
  M 467.16 605.28
  Q 467.64 604.20 468.25 602.38
  Q 472.85 588.63 477.25 574.80
  Q 480.56 564.35 488.87 548.48"
/>
<path stroke="#e7a391" vector-effect="non-scaling-stroke" d="
  M 488.87 548.48
  Q 501.43 520.06 506.93 507.95
  Q 509.47 502.38 513.29 496.00"
/>
<path stroke="#e7a391" vector-effect="non-scaling-stroke" d="
  M 560.70 465.53
  Q 562.18 464.48 564.12 462.12
  C 570.76 454.05 576.93 445.53 584.19 438.01"
/>
<path stroke="#98a3b1" vector-effect="non-scaling-stroke" d="
  M 548.07 345.12
  Q 543.42 342.39 540.45 345.20
  Q 535.98 349.43 533.68 356.88"
/>
<path stroke="#4b71ad" vector-effect="non-scaling-stroke" d="
  M 385.10 669.08
  Q 384.28 668.76 384.00 667.88
  Q 383.86 667.44 383.61 667.06
  L 366.79 641.58"
/>
<path stroke="#82656b" vector-effect="non-scaling-stroke" d="
  M 370.76 800.00
  L 375.67 790.43"
/>
<path stroke="#82656b" vector-effect="non-scaling-stroke" d="
  M 280.72 808.85
  L 279.69 801.81"
/>
<path stroke="#e7a391" vector-effect="non-scaling-stroke" d="
  M 530.16 312.36
  Q 520.59 318.30 509.46 320.30
  C 501.72 321.69 493.65 321.09 485.82 322.22
  C 479.98 323.06 476.28 327.37 474.40 332.65
  C 471.91 339.67 469.72 346.75 466.87 353.93
  Q 464.40 360.14 462.38 366.32
  C 461.15 370.04 459.17 373.93 456.37 376.74
  C 452.97 380.13 450.51 382.39 449.26 387.52
  Q 447.88 393.22 447.04 399.38"
/>
<path stroke="#8a98a9" vector-effect="non-scaling-stroke" d="
  M 659.26 690.51
  Q 658.93 689.67 658.76 688.48
  Q 658.60 687.42 657.74 686.69"
/>
<path stroke="#d6dfeb" vector-effect="non-scaling-stroke" d="
  M 73.47 555.07
  Q 79.84 554.85 88.19 555.31
  Q 90.28 555.43 92.12 554.92
  A 1.39 1.39 0.0 0 0 92.63 552.51
  C 86.25 547.25 79.67 541.85 72.00 539.31
  C 59.65 535.22 50.93 546.10 54.41 557.56
  C 55.22 560.23 59.25 566.74 62.61 562.66
  C 65.48 559.17 68.67 555.23 73.47 555.07"
/>
<path stroke="#d6dfeb" vector-effect="non-scaling-stroke" d="
  M 50.80 585.53
  Q 56.06 585.82 61.14 585.89
  Q 63.54 585.92 64.41 583.85
  C 65.24 581.89 63.17 580.31 61.81 579.27
  C 55.36 574.34 44.02 567.21 37.09 576.02
  C 33.43 580.68 34.06 589.52 36.21 594.64
  Q 36.65 595.69 37.74 595.82
  A 1.39 1.38 -74.3 0 0 39.18 595.01
  C 41.40 590.00 44.49 585.19 50.80 585.53"
/>
<path stroke="#98a3b1" vector-effect="non-scaling-stroke" d="
  M 607.8027 737.9655
  A 13.09 7.39 88.5 0 0 614.8475 724.6866
  A 13.09 7.39 88.5 0 0 607.1173 711.7945
  A 13.09 7.39 88.5 0 0 600.0725 725.0734
  A 13.09 7.39 88.5 0 0 607.8027 737.9655"
/>
<path stroke="#f0f3f7" vector-effect="non-scaling-stroke" d="
  M 329.63 140.11
  C 331.91 140.41 332.70 142.54 332.96 144.50
  Q 334.04 152.60 334.74 160.69
  A 1.22 1.21 -69.4 0 0 335.06 161.40
  Q 335.80 162.20 336.21 161.69
  Q 336.38 161.48 336.41 161.21
  Q 337.32 152.84 338.01 144.17
  A 1.72 1.68 66.6 0 1 338.36 143.26
  Q 339.89 141.32 342.52 140.64
  Q 347.43 139.37 352.29 138.38
  Q 352.87 138.26 352.70 137.70
  Q 352.43 136.77 351.38 136.58
  C 346.64 135.72 338.56 136.01 337.79 129.48
  Q 337.02 122.98 336.25 116.53
  Q 336.16 115.72 335.42 115.35
  A 0.69 0.69 0.0 0 0 334.43 115.91
  Q 333.80 122.55 332.77 130.01
  Q 332.12 134.71 327.89 135.75
  Q 322.51 137.06 316.45 137.67
  A 1.32 1.31 11.1 0 0 315.42 138.36
  L 315.28 138.63
  A 0.26 0.26 0.0 0 0 315.50 139.01
  Q 322.37 139.13 329.63 140.11"
/>
<path stroke="#f0f3f7" vector-effect="non-scaling-stroke" d="
  M 435.39 181.11
  Q 444.87 168.83 443.18 154.15
  C 441.07 135.87 427.60 121.21 408.92 120.16
  C 391.35 119.16 369.16 127.86 365.14 147.18
  C 359.80 172.90 376.99 194.20 403.46 193.34
  Q 412.18 193.06 420.16 190.24
  A 2.14 2.12 -34.4 0 1 422.25 190.62
  Q 433.69 200.34 449.16 200.49
  Q 450.83 200.50 452.36 199.80
  A 0.94 0.94 0.0 0 0 452.33 198.08
  Q 442.93 194.16 436.87 185.93
  Q 435.66 184.29 435.14 182.32
  Q 434.97 181.65 435.39 181.11"
/>
<path stroke="#8a98a9" vector-effect="non-scaling-stroke" d="
  M 767.69 251.26
  Q 772.31 258.71 767.27 266.69
  C 764.89 270.47 756.09 279.69 761.15 284.20
  C 763.32 286.13 766.55 285.89 768.55 283.86
  Q 774.42 277.92 782.01 272.31
  Q 791.17 265.54 791.41 255.08
  Q 791.67 243.53 784.40 235.97
  C 776.48 227.72 764.60 222.25 753.26 226.60
  C 747.80 228.69 738.66 234.63 739.19 241.28
  C 739.42 244.14 739.72 248.92 741.47 251.02
  C 745.12 255.42 750.57 253.46 754.65 250.79
  C 758.08 248.55 765.08 247.05 767.69 251.26"
/>
<path stroke="#f0f3f7" vector-effect="non-scaling-stroke" d="
  M 229.97 321.28
  C 233.36 322.04 234.59 326.03 235.11 329.10
  Q 237.17 341.27 238.08 352.60
  Q 238.13 353.18 238.70 355.07
  Q 238.85 355.58 239.36 355.69
  Q 240.02 355.82 240.40 354.70
  A 1.28 1.20 61.5 0 0 240.47 354.43
  Q 242.14 341.86 243.16 329.35
  C 243.47 325.56 245.57 323.36 249.21 322.50
  Q 257.96 320.44 266.59 318.44
  Q 268.77 317.94 267.02 316.54
  Q 266.28 315.94 265.21 315.78
  Q 257.45 314.62 251.21 313.21
  C 247.60 312.40 244.40 310.41 243.77 306.47
  Q 241.74 293.71 239.91 282.02
  A 0.77 0.76 67.5 0 0 238.71 281.52
  Q 238.24 281.86 238.16 282.45
  Q 236.79 292.27 235.54 303.35
  C 234.92 308.84 233.21 312.48 227.62 313.87
  Q 218.40 316.16 208.52 317.53
  Q 207.56 317.67 207.40 318.63
  Q 207.31 319.15 207.84 319.18
  Q 217.31 319.81 225.92 320.64
  Q 227.95 320.83 229.97 321.28"
/>
<path stroke="#8a98a9" vector-effect="non-scaling-stroke" d="
  M 778.7990 303.0124
  A 11.45 10.55 -10.2 0 0 765.6618 294.6567
  A 11.45 10.55 -10.2 0 0 756.2610 307.0676
  A 11.45 10.55 -10.2 0 0 769.3982 315.4233
  A 11.45 10.55 -10.2 0 0 778.7990 303.0124"
/>
<path stroke="#f0f3f7" vector-effect="non-scaling-stroke" d="
  M 690.82 427.10
  A 1.99 1.99 0.0 0 1 692.76 426.32
  C 710.12 429.40 729.31 422.88 740.46 409.20
  Q 755.24 391.07 751.61 368.01
  C 748.74 349.77 735.52 334.93 718.20 329.06
  Q 709.83 326.22 699.09 327.01
  C 671.98 329.01 652.23 351.50 653.16 378.52
  Q 654.04 404.04 675.03 419.18
  A 2.66 2.66 0.0 0 1 676.06 421.95
  Q 673.76 431.69 665.81 439.50
  Q 664.62 440.66 663.67 441.94
  A 0.65 0.64 14.4 0 0 664.28 442.96
  Q 680.82 440.76 690.82 427.10"
/>
<path stroke="#c8d4e3" vector-effect="non-scaling-stroke" d="
  M 227.24 593.42
  A 0.37 0.37 0.0 0 1 226.55 593.61
  C 220.53 582.71 215.08 571.41 208.94 560.44
  C 207.88 558.54 209.72 557.15 210.28 555.49
  C 211.37 552.29 212.92 549.25 213.77 546.04
  Q 217.32 532.52 222.92 518.30
  C 224.97 513.12 225.47 504.84 219.00 502.99
  C 213.51 501.43 208.91 504.81 206.70 509.91
  Q 201.90 520.98 200.87 533.19
  Q 200.60 536.44 200.37 539.19
  Q 200.18 541.49 199.27 539.37
  Q 191.55 521.30 183.21 498.05
  Q 182.92 497.25 183.23 496.40
  C 186.22 488.06 186.99 479.09 186.32 469.66
  Q 185.86 463.30 186.03 456.96
  C 186.26 448.23 178.74 443.99 171.18 448.12
  C 165.18 451.40 166.03 458.39 168.18 464.01
  C 170.08 468.98 172.18 473.78 174.62 478.42
  Q 178.59 485.99 180.60 493.06
  C 184.53 506.91 190.01 520.08 195.99 533.76
  Q 200.54 544.16 204.65 553.86
  C 206.73 558.76 209.30 563.07 212.09 567.49
  A 0.45 0.45 0.0 0 1 211.74 568.17
  Q 211.05 568.21 210.39 567.96
  C 206.58 566.54 202.76 565.56 198.68 565.47
  Q 192.08 565.32 186.52 564.62
  Q 181.97 564.05 175.63 561.28
  C 172.54 559.93 168.64 559.03 165.25 559.43
  C 156.01 560.51 153.73 569.36 157.40 576.73
  Q 160.19 582.36 166.18 584.31
  Q 175.82 587.45 187.74 587.81
  Q 194.35 588.01 199.04 586.35
  C 205.41 584.10 209.08 577.04 212.40 571.25
  A 0.87 0.87 0.0 0 1 213.94 571.32
  Q 218.63 581.23 223.42 589.50
  C 228.17 597.70 231.49 605.62 235.10 613.78
  Q 235.57 614.85 236.37 615.83
  Q 236.68 616.23 237.16 616.38
  Q 239.29 617.08 240.62 619.14
  Q 247.23 629.40 258.44 645.89
  Q 258.56 646.05 258.72 645.94
  L 258.97 645.77
  A 0.06 0.06 0.0 0 0 258.99 645.69
  Q 250.56 633.25 240.79 617.55
  Q 239.58 615.61 240.45 613.53
  Q 244.00 605.10 247.07 597.57
  C 251.48 586.75 260.88 565.49 248.78 556.39
  Q 243.37 552.32 238.01 552.93
  C 227.82 554.08 226.08 562.57 226.34 571.19
  Q 226.68 582.19 227.24 593.42"
/>
<path stroke="#c8d4e3" vector-effect="non-scaling-stroke" d="
  M 754.31 575.83
  A 2.65 2.64 -6.3 0 1 755.65 574.16
  C 768.02 567.69 776.25 552.84 767.53 540.02
  Q 760.81 530.14 748.27 527.72
  A 1.53 1.52 8.3 0 0 746.46 529.06
  Q 745.44 538.55 744.43 547.68
  C 743.95 552.10 746.29 556.01 748.29 559.87
  Q 751.14 565.38 752.86 572.38
  Q 753.59 575.37 752.84 577.93
  Q 751.98 580.88 751.08 583.90
  Q 751.04 584.03 751.16 584.08
  L 751.17 584.08
  Q 751.28 584.12 751.34 584.01
  Q 753.24 579.91 754.31 575.83"
/>
<path stroke="#c8d4e3" vector-effect="non-scaling-stroke" d="
  M 723.37 549.32
  Q 721.04 552.01 720.51 555.30
  Q 718.31 569.12 724.80 582.49
  Q 729.34 591.84 734.78 598.91
  Q 735.72 600.13 736.87 599.12
  Q 737.66 598.42 738.10 597.49
  C 740.87 591.69 743.70 584.58 743.35 578.03
  Q 742.57 563.55 733.84 550.65
  C 730.87 546.26 727.35 544.74 723.37 549.32"
/>
<path stroke="#c8d4e3" vector-effect="non-scaling-stroke" d="
  M 742.06 615.06
  Q 741.75 615.49 742.14 615.85
  Q 742.66 616.33 743.30 616.64
  C 752.23 620.91 761.92 623.22 771.23 618.72
  C 777.58 615.65 783.30 611.82 786.46 605.28
  C 790.42 597.07 785.35 590.21 776.47 591.22
  C 763.04 592.75 750.34 603.60 742.06 615.06"
/>
<path stroke="#98a3b1" vector-effect="non-scaling-stroke" d="
  M 397.41 160.00
  Q 396.56 160.36 396.25 159.76
  Q 396.02 159.33 396.07 158.86
  C 396.37 156.03 395.65 152.12 391.76 153.09
  A 2.50 2.50 0.0 0 0 389.89 155.09
  Q 388.66 162.17 388.20 170.96
  C 388.13 172.33 388.78 173.38 389.95 174.06
  Q 393.08 175.88 395.59 173.20
  Q 405.51 162.55 415.15 152.34
  A 4.83 4.77 54.2 0 0 415.98 146.99
  C 414.83 144.56 412.03 144.73 410.34 146.39
  Q 403.98 152.64 397.80 159.72
  A 1.16 1.06 6.6 0 1 397.41 160.00"
/>
<path stroke="#978589" vector-effect="non-scaling-stroke" d="
  M 471.58 356.50
  L 469.35 357.90
  A 1.99 1.99 0.0 0 0 469.04 361.03
  C 471.66 363.50 475.62 361.60 478.38 360.13
  Q 488.45 354.74 494.77 345.79
  Q 497.51 341.90 496.41 337.39"
/>
<path stroke="#fbbaa6" vector-effect="non-scaling-stroke" d="
  M 496.41 337.39
  Q 497.33 332.58 495.78 328.29
  A 1.52 1.51 -24.9 0 0 493.60 327.50
  C 486.34 331.68 484.33 338.69 480.07 345.34
  Q 479.04 346.95 475.93 350.20
  Q 473.19 353.05 471.58 356.50"
/>
<path stroke="#967d80" vector-effect="non-scaling-stroke" d="
  M 496.41 337.39
  Q 493.31 336.54 491.24 339.53
  Q 487.13 345.47 485.12 347.64
  Q 479.66 353.55 471.58 356.50"
/>
<path stroke="#978589" vector-effect="non-scaling-stroke" d="
  M 489.44 353.47
  Q 483.13 357.88 481.40 366.78
  Q 480.20 372.97 482.82 378.64
  Q 483.52 380.16 485.30 380.26"
/>
<path stroke="#fde0d7" vector-effect="non-scaling-stroke" d="
  M 485.30 380.26
  Q 487.54 381.72 488.72 379.88"
/>
<path stroke="#e7a391" vector-effect="non-scaling-stroke" d="
  M 488.72 379.88
  Q 489.97 383.97 494.26 384.07
  C 515.68 384.52 531.18 355.54 517.48 338.99
  C 514.62 335.54 509.39 335.41 505.67 337.07
  C 500.88 339.22 496.94 342.86 494.67 347.63
  Q 493.94 349.17 489.44 353.47"
/>
<path stroke="#e8c1b9" vector-effect="non-scaling-stroke" d="
  M 488.72 379.88
  Q 496.51 375.60 499.97 373.46
  Q 503.95 371.00 502.34 367.41"
/>
<path stroke="#82656b" vector-effect="non-scaling-stroke" d="
  M 502.34 367.41
  Q 500.98 362.54 495.85 362.47"
/>
<path stroke="#e8c1b9" vector-effect="non-scaling-stroke" d="
  M 495.85 362.47
  Q 496.31 360.76 495.72 358.11"
/>
<path stroke="#82656b" vector-effect="non-scaling-stroke" d="
  M 495.72 358.11
  Q 496.88 357.97 497.41 358.57
  Q 498.51 359.82 500.15 359.99
  A 0.26 0.25 86.6 0 0 500.42 359.68
  Q 499.43 354.76 493.97 354.36
  Q 491.99 354.21 489.44 353.47"
/>
<path stroke="#98a3b1" vector-effect="non-scaling-stroke" d="
  M 495.85 362.47
  Q 490.93 365.89 495.53 370.21
  Q 497.27 371.85 499.44 370.84
  Q 501.60 369.84 502.34 367.41"
/>
<path stroke="#98a3b1" vector-effect="non-scaling-stroke" d="
  M 495.72 358.11
  Q 492.43 356.13 488.39 356.53
  Q 487.88 356.58 487.56 356.98
  Q 482.57 363.30 482.74 371.00
  Q 482.83 375.16 485.30 380.26"
/>
<path stroke="#fde0d7" vector-effect="non-scaling-stroke" d="
  M 546.9589 366.7858
  A 2.01 1.65 -11.6 0 0 544.6582 365.5737
  A 2.01 1.65 -11.6 0 0 543.0211 367.5942
  A 2.01 1.65 -11.6 0 0 545.3218 368.8063
  A 2.01 1.65 -11.6 0 0 546.9589 366.7858"
/>
<path stroke="#e7a391" vector-effect="non-scaling-stroke" d="
  M 558.56 376.25
  L 551.20 390.27
  A 0.02 0.02 0.0 0 0 551.21 390.30
  L 551.25 390.32
  A 7.74 5.39 -62.3 0 0 559.62 385.98
  L 559.81 385.62
  A 7.74 5.39 -62.3 0 0 558.64 376.26
  L 558.59 376.24
  A 0.02 0.02 0.0 0 0 558.56 376.25"
/>
<path stroke="#978589" vector-effect="non-scaling-stroke" d="
  M 541.4802 393.4745
  A 3.63 2.63 96.8 0 0 544.5215 390.1814
  A 3.63 2.63 96.8 0 0 542.3398 386.2655
  A 3.63 2.63 96.8 0 0 539.2985 389.5586
  A 3.63 2.63 96.8 0 0 541.4802 393.4745"
/>
<path stroke="#fbbaa6" vector-effect="non-scaling-stroke" d="
  M 402.12 414.73
  Q 404.87 413.20 407.82 413.42
  Q 416.41 414.06 425.00 416.32
  Q 426.22 416.64 425.40 415.68
  Q 420.14 409.54 411.81 406.19
  C 408.13 404.71 402.25 403.93 399.10 406.81
  C 394.15 411.36 399.53 421.24 402.50 425.70
  Q 402.63 425.89 402.84 425.97
  Q 402.98 426.03 403.12 425.97
  Q 403.52 425.83 403.35 425.44
  Q 401.33 421.02 401.19 416.37
  A 1.83 1.82 -15.5 0 1 402.12 414.73"
/>
<path stroke="#978589" vector-effect="non-scaling-stroke" d="
  M 553.58 411.81
  Q 539.66 414.62 532.94 426.81
  Q 532.57 427.47 533.09 428.01
  L 533.31 428.24
  A 0.42 0.42 0.0 0 0 533.99 428.14
  C 539.10 417.89 549.78 412.04 561.05 412.89
  C 563.48 413.07 565.60 413.97 567.81 414.88
  Q 568.23 415.05 568.62 414.82
  A 0.44 0.43 -41.6 0 0 568.67 414.11
  C 564.66 410.89 558.56 410.80 553.58 411.81"
/>
<path stroke="#e7a391" vector-effect="non-scaling-stroke" d="
  M 427.19 433.03
  C 429.77 434.13 434.82 434.06 436.46 431.28
  C 439.23 426.58 433.14 421.92 429.48 420.35
  Q 429.02 420.15 428.53 420.26
  Q 426.81 420.62 427.57 419.67"
/>
<path stroke="#978589" vector-effect="non-scaling-stroke" d="
  M 427.57 419.67
  Q 427.28 417.33 423.81 417.65
  Q 418.29 418.16 417.70 423.27
  C 417.10 428.47 422.74 432.58 427.19 433.03"
/>
<path stroke="#82656b" vector-effect="non-scaling-stroke" d="
  M 427.57 419.67
  C 424.70 419.10 418.94 419.13 419.22 423.52
  C 419.55 428.63 423.72 430.21 427.19 433.03"
/>
<path stroke="#98a3b1" vector-effect="non-scaling-stroke" d="
  M 718.97 366.29
  Q 718.74 366.08 718.45 365.99
  Q 706.20 362.26 695.48 359.54
  Q 693.01 358.91 691.81 361.16
  Q 691.22 362.27 692.48 363.82
  A 2.61 2.54 77.7 0 0 693.75 364.66
  L 710.52 369.48
  Q 711.24 369.69 710.53 369.93
  Q 698.02 374.15 681.94 379.84
  Q 678.26 381.14 678.99 385.06
  Q 679.01 385.15 679.04 385.25
  Q 680.09 389.26 684.83 387.73
  Q 695.64 384.23 707.25 379.96
  Q 708.97 379.33 708.15 380.96
  L 703.48 390.35
  Q 702.14 393.04 704.30 395.12
  Q 704.66 395.46 705.12 395.67
  Q 708.27 397.07 710.13 394.16
  Q 718.28 381.42 722.01 373.37
  Q 724.01 369.06 719.38 366.59
  Q 719.16 366.46 718.97 366.29"
/>
<path stroke="#98a3b1" vector-effect="non-scaling-stroke" d="
  M 549.7524 351.7776
  A 2.49 2.49 0.0 0 0 549.4516 348.2691
  L 547.5240 346.6459
  A 2.49 2.49 0.0 0 0 544.0155 346.9467
  L 542.9076 348.2624
  A 2.49 2.49 0.0 0 0 543.2084 351.7709
  L 545.1360 353.3941
  A 2.49 2.49 0.0 0 0 548.6445 353.0933
  L 549.7524 351.7776"
/>
</g>
<path fill="#fefeff" d="
  M 1024.00 0.00
  L 1024.00 1024.00
  L 0.00 1024.00
  L 0.00 0.00
  L 1024.00 0.00
  Z
  M 304.69 896.47
  Q 306.61 900.58 310.24 906.51
  Q 321.24 924.52 335.17 939.88
  Q 353.99 960.65 380.71 966.71
  Q 394.92 969.94 407.29 964.29
  C 415.82 960.39 422.30 953.13 427.49 945.74
  Q 440.73 926.87 453.91 908.39
  Q 455.38 906.32 456.70 904.71
  Q 459.54 903.83 461.89 902.38
  Q 463.86 901.17 465.65 900.20
  Q 493.68 885.00 526.51 883.34
  A 0.61 0.60 -80.9 0 0 527.04 882.95
  L 527.14 882.65
  A 0.16 0.16 0.0 0 0 527.00 882.43
  Q 516.08 881.51 506.47 880.90
  C 499.73 880.46 492.38 877.24 492.74 869.40
  Q 493.11 861.47 499.47 855.35
  Q 507.84 847.29 513.05 838.40
  Q 518.60 828.91 525.70 818.73
  C 527.70 815.87 534.89 805.94 528.04 804.18
  Q 527.50 804.05 527.00 804.29
  Q 524.21 805.62 522.04 807.92
  C 516.67 813.58 511.15 820.96 504.59 824.63
  Q 500.08 827.17 493.50 827.42
  Q 500.23 804.80 505.59 780.35
  Q 514.93 737.76 531.58 663.42
  Q 534.11 652.10 536.53 640.75
  Q 536.67 640.13 537.01 640.19
  Q 543.70 638.17 549.25 635.24
  C 563.10 627.93 575.71 617.80 586.43 606.38
  Q 592.02 600.41 597.10 592.37
  Q 602.89 583.19 604.52 572.67
  L 644.95 581.59
  A 1.03 1.02 -12.9 0 1 645.51 581.94
  Q 645.90 582.45 645.73 582.87
  Q 650.75 596.05 655.87 609.30
  Q 664.17 630.73 666.98 651.50
  C 668.23 660.74 669.24 670.00 670.70 679.23
  Q 673.92 699.58 677.08 719.96
  C 672.07 727.31 673.99 735.23 674.76 743.70
  Q 675.32 749.99 676.11 756.32
  Q 675.69 765.76 674.39 775.18
  Q 674.33 775.64 674.06 775.87
  A 0.29 0.28 65.5 0 1 673.59 775.69
  Q 669.92 746.07 664.89 717.39
  Q 663.73 710.82 659.26 690.51
  Q 661.02 682.03 661.16 677.49
  Q 661.53 665.83 659.01 650.65
  Q 658.98 650.43 658.76 650.43
  L 658.32 650.42
  Q 658.11 650.41 658.12 650.62
  Q 658.64 676.83 658.69 685.47
  Q 658.69 686.14 657.74 686.69
  Q 656.47 686.44 657.03 688.90
  Q 666.54 730.44 671.62 772.76
  Q 672.59 780.85 672.88 784.95
  C 672.99 787.62 671.92 790.23 671.60 792.18
  C 670.97 796.00 669.92 799.77 669.45 803.58
  Q 668.00 815.42 665.80 829.08
  Q 664.97 834.24 662.29 837.25
  C 657.56 842.55 651.93 847.67 646.10 851.99
  C 628.94 864.70 609.34 875.14 588.30 879.55
  Q 588.23 879.57 588.16 879.61
  Q 588.01 879.70 588.19 879.67
  Q 594.51 878.54 601.17 876.55
  Q 622.00 870.30 646.63 860.13
  Q 658.60 855.19 676.20 853.98
  L 674.83 876.82
  A 0.53 0.53 0.0 0 0 675.44 877.38
  L 675.73 877.33
  Q 676.56 877.20 676.60 876.35
  L 677.45 854.68
  Q 690.86 856.59 700.30 859.70
  Q 720.96 866.52 731.19 869.30
  C 751.52 874.82 771.00 877.95 791.98 877.23
  Q 793.52 877.18 794.98 876.28
  Q 796.96 877.14 799.27 876.53
  C 820.78 870.89 840.85 860.26 854.59 842.72
  Q 873.74 818.27 891.31 790.79
  Q 909.03 763.08 922.86 730.92
  Q 926.97 721.37 930.77 710.02
  C 941.96 676.72 946.77 640.56 930.39 608.34
  Q 924.50 596.75 915.70 588.92
  C 905.49 579.83 895.47 583.39 884.58 588.19
  Q 875.56 592.17 865.19 591.36
  C 856.18 590.65 843.36 584.33 848.10 573.21
  Q 850.05 568.63 851.46 563.79
  Q 855.44 550.20 858.52 532.61
  Q 866.74 485.55 875.66 434.99
  C 879.76 411.76 884.40 388.44 888.70 365.70
  Q 891.19 352.57 892.18 341.22
  Q 895.73 300.36 869.80 271.85
  C 855.40 256.02 836.57 246.89 817.87 237.35
  Q 806.06 231.32 796.98 224.09
  Q 787.90 216.85 781.52 205.50
  C 773.11 190.52 770.38 173.03 761.87 157.91
  C 745.96 129.65 718.99 108.89 688.59 98.39
  Q 653.80 86.38 615.13 93.91
  C 596.77 97.48 579.78 103.14 561.60 108.94
  Q 549.70 112.73 531.19 114.62
  C 526.21 115.13 521.20 114.61 516.13 114.70
  C 498.31 115.02 480.38 110.28 465.17 101.57
  C 456.07 96.37 447.43 90.46 438.02 86.01
  C 411.15 73.31 381.91 75.02 353.36 83.63
  Q 338.90 87.98 318.68 94.90
  Q 285.55 106.24 254.20 117.48
  Q 231.70 125.54 211.58 134.33
  C 185.44 145.76 159.55 161.14 141.92 183.29
  C 113.94 218.43 110.51 265.80 122.24 307.81
  C 127.98 328.38 135.30 345.98 143.31 364.99
  C 149.07 378.64 152.14 396.60 138.07 406.77
  Q 132.70 410.65 128.08 414.53
  Q 118.84 422.31 111.65 435.43
  Q 101.50 453.94 98.11 473.89
  C 93.65 500.15 96.10 527.72 99.74 555.53
  C 100.56 561.78 100.53 566.54 96.36 570.64
  C 86.01 580.83 73.48 590.96 71.98 606.51
  C 70.79 618.85 78.73 627.58 90.04 631.04
  Q 96.95 633.16 105.28 633.90
  C 107.48 634.10 111.02 634.82 111.43 637.44
  Q 112.02 641.19 112.49 645.47
  C 114.00 659.24 117.44 672.86 119.82 687.11
  C 121.80 698.97 122.47 709.35 121.41 720.32
  Q 119.24 742.89 114.55 774.72
  Q 111.11 798.12 111.55 819.36
  Q 112.05 842.89 122.13 863.67
  C 133.25 886.61 156.42 902.02 180.11 908.66
  Q 222.80 920.60 266.13 909.13
  Q 284.47 904.28 304.69 896.47
  Z
  M 73.47 555.07
  Q 79.84 554.85 88.19 555.31
  Q 90.28 555.43 92.12 554.92
  A 1.39 1.39 0.0 0 0 92.63 552.51
  C 86.25 547.25 79.67 541.85 72.00 539.31
  C 59.65 535.22 50.93 546.10 54.41 557.56
  C 55.22 560.23 59.25 566.74 62.61 562.66
  C 65.48 559.17 68.67 555.23 73.47 555.07
  Z
  M 50.80 585.53
  Q 56.06 585.82 61.14 585.89
  Q 63.54 585.92 64.41 583.85
  C 65.24 581.89 63.17 580.31 61.81 579.27
  C 55.36 574.34 44.02 567.21 37.09 576.02
  C 33.43 580.68 34.06 589.52 36.21 594.64
  Q 36.65 595.69 37.74 595.82
  A 1.39 1.38 -74.3 0 0 39.18 595.01
  C 41.40 590.00 44.49 585.19 50.80 585.53
  Z
  M 607.8027 737.9655
  A 13.09 7.39 88.5 0 0 614.8475 724.6866
  A 13.09 7.39 88.5 0 0 607.1173 711.7945
  A 13.09 7.39 88.5 0 0 600.0725 725.0734
  A 13.09 7.39 88.5 0 0 607.8027 737.9655
  Z"
/>
<path fill="#e2e8ef" d="
  M 794.98 876.28
  Q 795.78 873.36 795.04 869.69
  Q 791.26 851.07 787.21 836.97
  Q 784.71 828.22 781.48 819.70
  Q 782.02 819.35 781.87 819.28
  Q 795.90 812.23 805.87 800.49
  L 783.88 738.01
  C 784.28 735.65 786.13 733.79 785.86 730.82
  Q 785.67 728.73 784.42 727.14
  Q 782.28 724.41 778.64 723.55
  L 771.75 705.63
  Q 781.24 703.72 784.01 703.00
  Q 792.79 700.71 800.76 695.24
  C 804.19 692.88 805.75 689.22 803.54 685.32
  C 798.26 675.99 784.28 674.37 774.73 676.23
  Q 767.46 677.64 762.15 680.32
  L 748.54 645.81
  Q 760.45 652.20 772.37 654.43
  C 778.80 655.63 789.76 656.43 795.18 652.42
  C 800.07 648.80 797.70 642.20 794.17 638.49
  C 786.53 630.46 775.52 627.48 764.34 627.50
  Q 758.93 627.51 753.07 629.96
  Q 747.54 632.27 742.59 636.06
  Q 733.80 623.24 722.65 614.60
  Q 716.11 609.53 709.19 604.95
  Q 709.10 604.90 709.06 604.81
  Q 708.98 604.62 709.02 604.54
  C 708.56 602.82 708.58 601.21 707.95 599.56
  Q 704.44 590.41 699.31 582.95
  C 697.27 579.99 693.15 577.42 690.18 580.84
  Q 689.04 582.15 689.00 584.97
  Q 688.92 589.90 690.19 595.43
  Q 673.69 588.76 657.53 584.56
  Q 651.95 583.11 646.23 582.22
  Q 645.99 582.18 645.73 582.87
  Q 645.90 582.45 645.51 581.94
  A 1.03 1.02 -12.9 0 0 644.95 581.59
  L 604.52 572.67
  L 583.49 567.38
  Q 583.48 567.27 583.34 567.07
  A 0.79 0.76 75.8 0 0 582.84 566.76
  Q 578.77 566.09 574.31 565.26
  Q 568.67 564.21 569.39 558.50
  Q 569.88 554.60 570.02 551.54
  Q 572.73 539.51 580.96 531.47
  Q 584.29 528.21 587.61 525.01
  Q 594.87 519.18 601.94 513.21
  Q 602.20 512.99 602.29 512.68
  Q 602.46 512.11 602.88 511.71
  Q 607.90 506.89 614.16 501.96
  Q 614.29 501.85 614.47 501.86
  Q 614.73 501.87 614.51 502.00
  Q 613.60 502.53 612.83 503.42
  Q 612.74 503.52 612.84 503.62
  L 612.84 503.62
  Q 612.94 503.71 613.03 503.63
  Q 622.94 495.05 632.82 486.58
  Q 636.68 483.26 641.02 480.25
  Q 647.38 475.84 648.43 467.54
  C 649.00 463.03 648.69 458.36 644.98 455.25
  Q 641.39 452.24 637.32 450.30
  Q 621.77 442.89 606.64 433.32
  Q 603.59 431.39 599.92 429.57
  Q 594.88 427.07 589.30 422.07
  Q 586.76 416.87 583.37 406.42
  Q 578.73 392.09 566.49 367.78
  Q 564.41 363.66 558.05 353.45
  Q 556.36 350.72 554.76 351.10
  Q 551.36 349.13 549.00 345.59
  L 551.23 345.72
  L 552.52 345.70
  Q 552.94 346.11 553.37 346.16
  A 0.57 0.54 -70.0 0 0 553.90 345.90
  Q 557.21 340.44 560.71 334.88
  Q 569.77 320.51 575.51 302.41
  Q 580.54 286.52 576.92 271.94
  C 572.49 254.13 558.08 238.45 541.95 230.69
  C 522.77 221.46 498.50 223.83 482.30 239.09
  Q 478.73 242.46 475.27 246.02
  C 463.71 257.92 448.17 264.01 432.22 268.44
  Q 413.12 273.75 394.14 276.37
  Q 380.81 278.21 372.31 284.01
  Q 350.86 298.65 351.80 325.51
  C 351.84 326.89 352.19 328.41 352.35 329.79
  Q 352.42 330.40 351.81 330.45
  Q 337.10 331.54 329.39 343.03
  C 325.19 349.29 323.94 358.43 325.66 365.63
  Q 328.96 379.44 341.24 385.87
  A 0.39 0.39 0.0 0 1 341.29 386.53
  Q 333.12 392.36 334.26 403.57
  C 335.41 414.91 343.15 424.51 355.80 421.31
  Q 356.85 421.05 356.60 422.10
  C 355.61 426.27 354.10 431.30 356.17 435.40
  Q 359.33 441.65 366.96 438.50
  A 1.04 1.03 63.1 0 1 368.23 438.92
  C 382.99 463.08 408.54 478.26 435.65 485.54
  Q 440.52 486.85 445.87 488.30
  L 446.32 492.36
  C 446.36 499.61 447.40 507.45 447.46 513.25
  Q 447.59 526.53 447.03 537.77
  Q 446.65 545.63 445.40 550.02
  Q 444.41 553.49 440.78 555.28
  Q 430.39 560.40 425.72 562.45
  L 405.38 571.08
  Q 391.89 576.06 376.92 579.18
  Q 365.52 581.56 354.11 583.86
  C 353.65 583.95 353.23 584.31 352.85 584.58
  Q 352.63 584.53 352.36 584.45
  Q 352.12 584.38 351.89 584.41
  Q 327.65 588.44 305.71 598.32
  Q 304.26 598.62 304.07 597.91
  Q 302.83 593.33 301.09 590.69
  C 296.02 583.00 285.23 584.00 281.45 592.26
  Q 280.38 594.59 279.87 600.46
  Q 279.09 609.49 278.37 618.54
  Q 275.56 622.78 272.88 627.07
  Q 266.11 637.89 262.90 650.19
  C 262.34 652.33 261.85 655.83 260.95 658.72
  Q 252.79 654.12 248.06 652.67
  C 241.40 650.63 234.31 648.52 228.21 645.11
  C 219.30 640.11 210.20 633.55 199.43 637.59
  Q 193.33 639.87 192.85 647.06
  C 192.42 653.54 194.16 662.33 199.71 666.23
  Q 207.79 671.90 220.05 673.02
  C 229.51 673.89 236.81 673.32 245.96 670.53
  Q 251.58 668.82 257.22 667.21
  Q 259.97 666.43 259.78 668.28
  Q 257.43 686.61 256.99 706.10
  Q 249.08 703.99 241.51 703.02
  C 236.13 702.33 228.56 703.28 228.31 710.26
  C 228.05 717.23 232.42 720.87 238.38 722.69
  Q 246.75 725.24 255.28 725.09
  Q 255.79 725.08 255.93 725.58
  Q 256.20 726.55 255.96 727.72
  C 254.65 753.10 254.21 779.61 253.46 814.25
  Q 253.45 814.97 254.51 815.14
  Q 254.03 815.14 254.27 815.75
  A 0.49 0.45 87.6 0 0 254.54 816.02
  Q 268.33 821.72 282.91 824.18
  L 283.15 824.69
  Q 283.32 825.07 283.36 825.49
  Q 283.56 827.96 284.14 830.27
  C 286.88 841.14 289.00 851.97 292.15 862.70
  Q 295.64 874.58 298.16 881.63
  Q 299.69 885.89 304.69 896.47
  Q 284.47 904.28 266.13 909.13
  Q 222.80 920.60 180.11 908.66
  C 156.42 902.02 133.25 886.61 122.13 863.67
  Q 112.05 842.89 111.55 819.36
  Q 111.11 798.12 114.55 774.72
  Q 119.24 742.89 121.41 720.32
  C 122.47 709.35 121.80 698.97 119.82 687.11
  C 117.44 672.86 114.00 659.24 112.49 645.47
  Q 112.02 641.19 111.43 637.44
  C 111.02 634.82 107.48 634.10 105.28 633.90
  Q 96.95 633.16 90.04 631.04
  C 78.73 627.58 70.79 618.85 71.98 606.51
  C 73.48 590.96 86.01 580.83 96.36 570.64
  C 100.53 566.54 100.56 561.78 99.74 555.53
  C 96.10 527.72 93.65 500.15 98.11 473.89
  Q 101.50 453.94 111.65 435.43
  Q 118.84 422.31 128.08 414.53
  Q 132.70 410.65 138.07 406.77
  C 152.14 396.60 149.07 378.64 143.31 364.99
  C 135.30 345.98 127.98 328.38 122.24 307.81
  C 110.51 265.80 113.94 218.43 141.92 183.29
  C 159.55 161.14 185.44 145.76 211.58 134.33
  Q 231.70 125.54 254.20 117.48
  Q 285.55 106.24 318.68 94.90
  Q 338.90 87.98 353.36 83.63
  C 381.91 75.02 411.15 73.31 438.02 86.01
  C 447.43 90.46 456.07 96.37 465.17 101.57
  C 480.38 110.28 498.31 115.02 516.13 114.70
  C 521.20 114.61 526.21 115.13 531.19 114.62
  Q 549.70 112.73 561.60 108.94
  C 579.78 103.14 596.77 97.48 615.13 93.91
  Q 653.80 86.38 688.59 98.39
  C 718.99 108.89 745.96 129.65 761.87 157.91
  C 770.38 173.03 773.11 190.52 781.52 205.50
  Q 787.90 216.85 796.98 224.09
  Q 806.06 231.32 817.87 237.35
  C 836.57 246.89 855.40 256.02 869.80 271.85
  Q 895.73 300.36 892.18 341.22
  Q 891.19 352.57 888.70 365.70
  C 884.40 388.44 879.76 411.76 875.66 434.99
  Q 866.74 485.55 858.52 532.61
  Q 855.44 550.20 851.46 563.79
  Q 850.05 568.63 848.10 573.21
  C 843.36 584.33 856.18 590.65 865.19 591.36
  Q 875.56 592.17 884.58 588.19
  C 895.47 583.39 905.49 579.83 915.70 588.92
  Q 924.50 596.75 930.39 608.34
  C 946.77 640.56 941.96 676.72 930.77 710.02
  Q 926.97 721.37 922.86 730.92
  Q 909.03 763.08 891.31 790.79
  Q 873.74 818.27 854.59 842.72
  C 840.85 860.26 820.78 870.89 799.27 876.53
  Q 796.96 877.14 794.98 876.28
  Z
  M 329.63 140.11
  C 331.91 140.41 332.70 142.54 332.96 144.50
  Q 334.04 152.60 334.74 160.69
  A 1.22 1.21 -69.4 0 0 335.06 161.40
  Q 335.80 162.20 336.21 161.69
  Q 336.38 161.48 336.41 161.21
  Q 337.32 152.84 338.01 144.17
  A 1.72 1.68 66.6 0 1 338.36 143.26
  Q 339.89 141.32 342.52 140.64
  Q 347.43 139.37 352.29 138.38
  Q 352.87 138.26 352.70 137.70
  Q 352.43 136.77 351.38 136.58
  C 346.64 135.72 338.56 136.01 337.79 129.48
  Q 337.02 122.98 336.25 116.53
  Q 336.16 115.72 335.42 115.35
  A 0.69 0.69 0.0 0 0 334.43 115.91
  Q 333.80 122.55 332.77 130.01
  Q 332.12 134.71 327.89 135.75
  Q 322.51 137.06 316.45 137.67
  A 1.32 1.31 11.1 0 0 315.42 138.36
  L 315.28 138.63
  A 0.26 0.26 0.0 0 0 315.50 139.01
  Q 322.37 139.13 329.63 140.11
  Z
  M 435.39 181.11
  Q 444.87 168.83 443.18 154.15
  C 441.07 135.87 427.60 121.21 408.92 120.16
  C 391.35 119.16 369.16 127.86 365.14 147.18
  C 359.80 172.90 376.99 194.20 403.46 193.34
  Q 412.18 193.06 420.16 190.24
  A 2.14 2.12 -34.4 0 1 422.25 190.62
  Q 433.69 200.34 449.16 200.49
  Q 450.83 200.50 452.36 199.80
  A 0.94 0.94 0.0 0 0 452.33 198.08
  Q 442.93 194.16 436.87 185.93
  Q 435.66 184.29 435.14 182.32
  Q 434.97 181.65 435.39 181.11
  Z
  M 767.69 251.26
  Q 772.31 258.71 767.27 266.69
  C 764.89 270.47 756.09 279.69 761.15 284.20
  C 763.32 286.13 766.55 285.89 768.55 283.86
  Q 774.42 277.92 782.01 272.31
  Q 791.17 265.54 791.41 255.08
  Q 791.67 243.53 784.40 235.97
  C 776.48 227.72 764.60 222.25 753.26 226.60
  C 747.80 228.69 738.66 234.63 739.19 241.28
  C 739.42 244.14 739.72 248.92 741.47 251.02
  C 745.12 255.42 750.57 253.46 754.65 250.79
  C 758.08 248.55 765.08 247.05 767.69 251.26
  Z
  M 229.97 321.28
  C 233.36 322.04 234.59 326.03 235.11 329.10
  Q 237.17 341.27 238.08 352.60
  Q 238.13 353.18 238.70 355.07
  Q 238.85 355.58 239.36 355.69
  Q 240.02 355.82 240.40 354.70
  A 1.28 1.20 61.5 0 0 240.47 354.43
  Q 242.14 341.86 243.16 329.35
  C 243.47 325.56 245.57 323.36 249.21 322.50
  Q 257.96 320.44 266.59 318.44
  Q 268.77 317.94 267.02 316.54
  Q 266.28 315.94 265.21 315.78
  Q 257.45 314.62 251.21 313.21
  C 247.60 312.40 244.40 310.41 243.77 306.47
  Q 241.74 293.71 239.91 282.02
  A 0.77 0.76 67.5 0 0 238.71 281.52
  Q 238.24 281.86 238.16 282.45
  Q 236.79 292.27 235.54 303.35
  C 234.92 308.84 233.21 312.48 227.62 313.87
  Q 218.40 316.16 208.52 317.53
  Q 207.56 317.67 207.40 318.63
  Q 207.31 319.15 207.84 319.18
  Q 217.31 319.81 225.92 320.64
  Q 227.95 320.83 229.97 321.28
  Z
  M 778.7990 303.0124
  A 11.45 10.55 -10.2 0 0 765.6618 294.6567
  A 11.45 10.55 -10.2 0 0 756.2610 307.0676
  A 11.45 10.55 -10.2 0 0 769.3982 315.4233
  A 11.45 10.55 -10.2 0 0 778.7990 303.0124
  Z
  M 690.82 427.10
  A 1.99 1.99 0.0 0 1 692.76 426.32
  C 710.12 429.40 729.31 422.88 740.46 409.20
  Q 755.24 391.07 751.61 368.01
  C 748.74 349.77 735.52 334.93 718.20 329.06
  Q 709.83 326.22 699.09 327.01
  C 671.98 329.01 652.23 351.50 653.16 378.52
  Q 654.04 404.04 675.03 419.18
  A 2.66 2.66 0.0 0 1 676.06 421.95
  Q 673.76 431.69 665.81 439.50
  Q 664.62 440.66 663.67 441.94
  A 0.65 0.64 14.4 0 0 664.28 442.96
  Q 680.82 440.76 690.82 427.10
  Z
  M 227.24 593.42
  A 0.37 0.37 0.0 0 1 226.55 593.61
  C 220.53 582.71 215.08 571.41 208.94 560.44
  C 207.88 558.54 209.72 557.15 210.28 555.49
  C 211.37 552.29 212.92 549.25 213.77 546.04
  Q 217.32 532.52 222.92 518.30
  C 224.97 513.12 225.47 504.84 219.00 502.99
  C 213.51 501.43 208.91 504.81 206.70 509.91
  Q 201.90 520.98 200.87 533.19
  Q 200.60 536.44 200.37 539.19
  Q 200.18 541.49 199.27 539.37
  Q 191.55 521.30 183.21 498.05
  Q 182.92 497.25 183.23 496.40
  C 186.22 488.06 186.99 479.09 186.32 469.66
  Q 185.86 463.30 186.03 456.96
  C 186.26 448.23 178.74 443.99 171.18 448.12
  C 165.18 451.40 166.03 458.39 168.18 464.01
  C 170.08 468.98 172.18 473.78 174.62 478.42
  Q 178.59 485.99 180.60 493.06
  C 184.53 506.91 190.01 520.08 195.99 533.76
  Q 200.54 544.16 204.65 553.86
  C 206.73 558.76 209.30 563.07 212.09 567.49
  A 0.45 0.45 0.0 0 1 211.74 568.17
  Q 211.05 568.21 210.39 567.96
  C 206.58 566.54 202.76 565.56 198.68 565.47
  Q 192.08 565.32 186.52 564.62
  Q 181.97 564.05 175.63 561.28
  C 172.54 559.93 168.64 559.03 165.25 559.43
  C 156.01 560.51 153.73 569.36 157.40 576.73
  Q 160.19 582.36 166.18 584.31
  Q 175.82 587.45 187.74 587.81
  Q 194.35 588.01 199.04 586.35
  C 205.41 584.10 209.08 577.04 212.40 571.25
  A 0.87 0.87 0.0 0 1 213.94 571.32
  Q 218.63 581.23 223.42 589.50
  C 228.17 597.70 231.49 605.62 235.10 613.78
  Q 235.57 614.85 236.37 615.83
  Q 236.68 616.23 237.16 616.38
  Q 239.29 617.08 240.62 619.14
  Q 247.23 629.40 258.44 645.89
  Q 258.56 646.05 258.72 645.94
  L 258.97 645.77
  A 0.06 0.06 0.0 0 0 258.99 645.69
  Q 250.56 633.25 240.79 617.55
  Q 239.58 615.61 240.45 613.53
  Q 244.00 605.10 247.07 597.57
  C 251.48 586.75 260.88 565.49 248.78 556.39
  Q 243.37 552.32 238.01 552.93
  C 227.82 554.08 226.08 562.57 226.34 571.19
  Q 226.68 582.19 227.24 593.42
  Z
  M 754.31 575.83
  A 2.65 2.64 -6.3 0 1 755.65 574.16
  C 768.02 567.69 776.25 552.84 767.53 540.02
  Q 760.81 530.14 748.27 527.72
  A 1.53 1.52 8.3 0 0 746.46 529.06
  Q 745.44 538.55 744.43 547.68
  C 743.95 552.10 746.29 556.01 748.29 559.87
  Q 751.14 565.38 752.86 572.38
  Q 753.59 575.37 752.84 577.93
  Q 751.98 580.88 751.08 583.90
  Q 751.04 584.03 751.16 584.08
  L 751.17 584.08
  Q 751.28 584.12 751.34 584.01
  Q 753.24 579.91 754.31 575.83
  Z
  M 723.37 549.32
  Q 721.04 552.01 720.51 555.30
  Q 718.31 569.12 724.80 582.49
  Q 729.34 591.84 734.78 598.91
  Q 735.72 600.13 736.87 599.12
  Q 737.66 598.42 738.10 597.49
  C 740.87 591.69 743.70 584.58 743.35 578.03
  Q 742.57 563.55 733.84 550.65
  C 730.87 546.26 727.35 544.74 723.37 549.32
  Z
  M 742.06 615.06
  Q 741.75 615.49 742.14 615.85
  Q 742.66 616.33 743.30 616.64
  C 752.23 620.91 761.92 623.22 771.23 618.72
  C 777.58 615.65 783.30 611.82 786.46 605.28
  C 790.42 597.07 785.35 590.21 776.47 591.22
  C 763.04 592.75 750.34 603.60 742.06 615.06
  Z"
/>
<path fill="#fefeff" d="
  M 332.96 144.50
  C 332.70 142.54 331.91 140.41 329.63 140.11
  Q 322.37 139.13 315.50 139.01
  A 0.26 0.26 0.0 0 1 315.28 138.63
  L 315.42 138.36
  A 1.32 1.31 11.1 0 1 316.45 137.67
  Q 322.51 137.06 327.89 135.75
  Q 332.12 134.71 332.77 130.01
  Q 333.80 122.55 334.43 115.91
  A 0.69 0.69 0.0 0 1 335.42 115.35
  Q 336.16 115.72 336.25 116.53
  Q 337.02 122.98 337.79 129.48
  C 338.56 136.01 346.64 135.72 351.38 136.58
  Q 352.43 136.77 352.70 137.70
  Q 352.87 138.26 352.29 138.38
  Q 347.43 139.37 342.52 140.64
  Q 339.89 141.32 338.36 143.26
  A 1.72 1.68 66.6 0 0 338.01 144.17
  Q 337.32 152.84 336.41 161.21
  Q 336.38 161.48 336.21 161.69
  Q 335.80 162.20 335.06 161.40
  A 1.22 1.21 -69.4 0 1 334.74 160.69
  Q 334.04 152.60 332.96 144.50
  Z"
/>
<path fill="#fefeff" d="
  M 435.14 182.32
  Q 435.66 184.29 436.87 185.93
  Q 442.93 194.16 452.33 198.08
  A 0.94 0.94 0.0 0 1 452.36 199.80
  Q 450.83 200.50 449.16 200.49
  Q 433.69 200.34 422.25 190.62
  A 2.14 2.12 -34.4 0 0 420.16 190.24
  Q 412.18 193.06 403.46 193.34
  C 376.99 194.20 359.80 172.90 365.14 147.18
  C 369.16 127.86 391.35 119.16 408.92 120.16
  C 427.60 121.21 441.07 135.87 443.18 154.15
  Q 444.87 168.83 435.39 181.11
  Q 434.97 181.65 435.14 182.32
  Z
  M 397.41 160.00
  Q 396.56 160.36 396.25 159.76
  Q 396.02 159.33 396.07 158.86
  C 396.37 156.03 395.65 152.12 391.76 153.09
  A 2.50 2.50 0.0 0 0 389.89 155.09
  Q 388.66 162.17 388.20 170.96
  C 388.13 172.33 388.78 173.38 389.95 174.06
  Q 393.08 175.88 395.59 173.20
  Q 405.51 162.55 415.15 152.34
  A 4.83 4.77 54.2 0 0 415.98 146.99
  C 414.83 144.56 412.03 144.73 410.34 146.39
  Q 403.98 152.64 397.80 159.72
  A 1.16 1.06 6.6 0 1 397.41 160.00
  Z"
/>
<path fill="#324763" d="
  M 397.41 160.00
  A 1.16 1.06 6.6 0 0 397.80 159.72
  Q 403.98 152.64 410.34 146.39
  C 412.03 144.73 414.83 144.56 415.98 146.99
  A 4.83 4.77 54.2 0 1 415.15 152.34
  Q 405.51 162.55 395.59 173.20
  Q 393.08 175.88 389.95 174.06
  C 388.78 173.38 388.13 172.33 388.20 170.96
  Q 388.66 162.17 389.89 155.09
  A 2.50 2.50 0.0 0 1 391.76 153.09
  C 395.65 152.12 396.37 156.03 396.07 158.86
  Q 396.02 159.33 396.25 159.76
  Q 396.56 160.36 397.41 160.00
  Z"
/>
<path fill="#324763" d="
  M 767.69 251.26
  C 765.08 247.05 758.08 248.55 754.65 250.79
  C 750.57 253.46 745.12 255.42 741.47 251.02
  C 739.72 248.92 739.42 244.14 739.19 241.28
  C 738.66 234.63 747.80 228.69 753.26 226.60
  C 764.60 222.25 776.48 227.72 784.40 235.97
  Q 791.67 243.53 791.41 255.08
  Q 791.17 265.54 782.01 272.31
  Q 774.42 277.92 768.55 283.86
  C 766.55 285.89 763.32 286.13 761.15 284.20
  C 756.09 279.69 764.89 270.47 767.27 266.69
  Q 772.31 258.71 767.69 251.26
  Z"
/>
<path fill="#324763" d="
  M 552.52 345.70
  L 544.15 332.56
  Q 543.87 332.12 543.36 332.23
  Q 538.77 333.27 534.22 332.69
  L 522.26 329.34
  Q 520.88 327.86 521.57 326.18
  C 522.89 322.96 528.15 325.26 530.21 326.19
  C 533.28 327.57 537.17 327.29 540.45 326.89
  A 0.31 0.31 0.0 0 0 540.68 326.42
  Q 535.96 318.16 530.16 312.36
  Q 528.68 309.65 527.24 308.91
  Q 526.76 308.66 526.27 308.90
  Q 513.25 315.10 497.44 312.63
  C 494.01 312.09 490.84 310.58 487.33 310.16
  Q 480.08 309.31 472.33 313.79
  C 469.92 315.18 468.06 316.84 467.56 319.75
  C 465.79 330.14 463.34 340.19 459.85 350.40
  Q 457.30 357.86 454.78 361.77
  Q 449.51 369.98 448.24 372.76
  Q 442.36 385.63 447.04 399.38
  Q 447.94 401.95 451.16 407.90
  Q 453.14 411.58 451.08 415.26
  C 447.86 420.99 442.56 419.12 438.59 415.54
  Q 430.48 408.23 422.22 400.92
  C 417.29 396.57 412.90 394.19 406.62 393.73
  C 397.15 393.03 388.97 396.63 386.40 406.41
  C 382.22 422.35 393.33 437.83 405.39 447.01
  Q 420.64 458.62 440.51 456.94
  L 445.87 488.30
  Q 440.52 486.85 435.65 485.54
  C 408.54 478.26 382.99 463.08 368.23 438.92
  A 1.04 1.03 63.1 0 0 366.96 438.50
  Q 359.33 441.65 356.17 435.40
  C 354.10 431.30 355.61 426.27 356.60 422.10
  Q 356.85 421.05 355.80 421.31
  C 343.15 424.51 335.41 414.91 334.26 403.57
  Q 333.12 392.36 341.29 386.53
  A 0.39 0.39 0.0 0 0 341.24 385.87
  Q 328.96 379.44 325.66 365.63
  C 323.94 358.43 325.19 349.29 329.39 343.03
  Q 337.10 331.54 351.81 330.45
  Q 352.42 330.40 352.35 329.79
  C 352.19 328.41 351.84 326.89 351.80 325.51
  Q 350.86 298.65 372.31 284.01
  Q 380.81 278.21 394.14 276.37
  Q 413.12 273.75 432.22 268.44
  C 448.17 264.01 463.71 257.92 475.27 246.02
  Q 478.73 242.46 482.30 239.09
  C 498.50 223.83 522.77 221.46 541.95 230.69
  C 558.08 238.45 572.49 254.13 576.92 271.94
  Q 580.54 286.52 575.51 302.41
  Q 569.77 320.51 560.71 334.88
  Q 557.21 340.44 553.90 345.90
  A 0.57 0.54 -70.0 0 1 553.37 346.16
  Q 552.94 346.11 552.52 345.70
  Z"
/>
<path fill="#fefeff" d="
  M 229.97 321.28
  Q 227.95 320.83 225.92 320.64
  Q 217.31 319.81 207.84 319.18
  Q 207.31 319.15 207.40 318.63
  Q 207.56 317.67 208.52 317.53
  Q 218.40 316.16 227.62 313.87
  C 233.21 312.48 234.92 308.84 235.54 303.35
  Q 236.79 292.27 238.16 282.45
  Q 238.24 281.86 238.71 281.52
  A 0.77 0.76 67.5 0 1 239.91 282.02
  Q 241.74 293.71 243.77 306.47
  C 244.40 310.41 247.60 312.40 251.21 313.21
  Q 257.45 314.62 265.21 315.78
  Q 266.28 315.94 267.02 316.54
  Q 268.77 317.94 266.59 318.44
  Q 257.96 320.44 249.21 322.50
  C 245.57 323.36 243.47 325.56 243.16 329.35
  Q 242.14 341.86 240.47 354.43
  A 1.28 1.20 61.5 0 1 240.40 354.70
  Q 240.02 355.82 239.36 355.69
  Q 238.85 355.58 238.70 355.07
  Q 238.13 353.18 238.08 352.60
  Q 237.17 341.27 235.11 329.10
  C 234.59 326.03 233.36 322.04 229.97 321.28
  Z"
/>
<ellipse fill="#324763" cx="0.00" cy="0.00" transform="translate(767.53,305.04) rotate(-10.2)" rx="11.45" ry="10.55"/>
<path fill="#d28373" d="
  M 530.16 312.36
  Q 520.59 318.30 509.46 320.30
  C 501.72 321.69 493.65 321.09 485.82 322.22
  C 479.98 323.06 476.28 327.37 474.40 332.65
  C 471.91 339.67 469.72 346.75 466.87 353.93
  Q 464.40 360.14 462.38 366.32
  C 461.15 370.04 459.17 373.93 456.37 376.74
  C 452.97 380.13 450.51 382.39 449.26 387.52
  Q 447.88 393.22 447.04 399.38
  Q 442.36 385.63 448.24 372.76
  Q 449.51 369.98 454.78 361.77
  Q 457.30 357.86 459.85 350.40
  C 463.34 340.19 465.79 330.14 467.56 319.75
  C 468.06 316.84 469.92 315.18 472.33 313.79
  Q 480.08 309.31 487.33 310.16
  C 490.84 310.58 494.01 312.09 497.44 312.63
  Q 513.25 315.10 526.27 308.90
  Q 526.76 308.66 527.24 308.91
  Q 528.68 309.65 530.16 312.36
  Z"
/>
<path fill="#fcc2af" d="
  M 530.16 312.36
  Q 535.96 318.16 540.68 326.42
  A 0.31 0.31 0.0 0 1 540.45 326.89
  C 537.17 327.29 533.28 327.57 530.21 326.19
  C 528.15 325.26 522.89 322.96 521.57 326.18
  Q 520.88 327.86 522.26 329.34
  Q 521.51 333.30 521.53 337.33
  Q 521.54 340.97 523.10 344.04
  C 525.42 348.60 529.61 351.69 532.16 355.00
  Q 532.83 356.26 533.68 356.88
  Q 535.66 357.29 539.26 357.31
  Q 545.04 357.34 549.97 355.97
  C 552.60 355.24 553.60 353.35 554.76 351.10
  Q 556.36 350.72 558.05 353.45
  Q 564.41 363.66 566.49 367.78
  Q 578.73 392.09 583.37 406.42
  Q 586.76 416.87 589.30 422.07
  C 582.63 419.85 577.58 423.40 573.11 427.97
  C 556.59 444.84 541.95 463.55 526.12 480.12
  Q 524.11 482.22 519.26 484.61
  Q 506.65 486.96 493.74 488.20
  Q 481.64 489.36 471.55 482.87
  C 462.14 476.81 452.43 466.71 447.91 455.86
  A 0.60 0.59 -17.3 0 0 447.24 455.51
  L 440.51 456.94
  Q 420.64 458.62 405.39 447.01
  C 393.33 437.83 382.22 422.35 386.40 406.41
  C 388.97 396.63 397.15 393.03 406.62 393.73
  C 412.90 394.19 417.29 396.57 422.22 400.92
  Q 430.48 408.23 438.59 415.54
  C 442.56 419.12 447.86 420.99 451.08 415.26
  Q 453.14 411.58 451.16 407.90
  Q 447.94 401.95 447.04 399.38
  Q 447.88 393.22 449.26 387.52
  C 450.51 382.39 452.97 380.13 456.37 376.74
  C 459.17 373.93 461.15 370.04 462.38 366.32
  Q 464.40 360.14 466.87 353.93
  C 469.72 346.75 471.91 339.67 474.40 332.65
  C 476.28 327.37 479.98 323.06 485.82 322.22
  C 493.65 321.09 501.72 321.69 509.46 320.30
  Q 520.59 318.30 530.16 312.36
  Z
  M 471.58 356.50
  L 469.35 357.90
  A 1.99 1.99 0.0 0 0 469.04 361.03
  C 471.66 363.50 475.62 361.60 478.38 360.13
  Q 488.45 354.74 494.77 345.79
  Q 497.51 341.90 496.41 337.39
  Q 497.33 332.58 495.78 328.29
  A 1.52 1.51 -24.9 0 0 493.60 327.50
  C 486.34 331.68 484.33 338.69 480.07 345.34
  Q 479.04 346.95 475.93 350.20
  Q 473.19 353.05 471.58 356.50
  Z
  M 489.44 353.47
  Q 483.13 357.88 481.40 366.78
  Q 480.20 372.97 482.82 378.64
  Q 483.52 380.16 485.30 380.26
  Q 487.54 381.72 488.72 379.88
  Q 489.97 383.97 494.26 384.07
  C 515.68 384.52 531.18 355.54 517.48 338.99
  C 514.62 335.54 509.39 335.41 505.67 337.07
  C 500.88 339.22 496.94 342.86 494.67 347.63
  Q 493.94 349.17 489.44 353.47
  Z
  M 546.9589 366.7858
  A 2.01 1.65 -11.6 0 0 544.6582 365.5737
  A 2.01 1.65 -11.6 0 0 543.0211 367.5942
  A 2.01 1.65 -11.6 0 0 545.3218 368.8063
  A 2.01 1.65 -11.6 0 0 546.9589 366.7858
  Z
  M 558.56 376.25
  L 551.20 390.27
  A 0.02 0.02 0.0 0 0 551.21 390.30
  L 551.25 390.32
  A 7.74 5.39 -62.3 0 0 559.62 385.98
  L 559.81 385.62
  A 7.74 5.39 -62.3 0 0 558.64 376.26
  L 558.59 376.24
  A 0.02 0.02 0.0 0 0 558.56 376.25
  Z
  M 541.4802 393.4745
  A 3.63 2.63 96.8 0 0 544.5215 390.1814
  A 3.63 2.63 96.8 0 0 542.3398 386.2655
  A 3.63 2.63 96.8 0 0 539.2985 389.5586
  A 3.63 2.63 96.8 0 0 541.4802 393.4745
  Z
  M 402.12 414.73
  Q 404.87 413.20 407.82 413.42
  Q 416.41 414.06 425.00 416.32
  Q 426.22 416.64 425.40 415.68
  Q 420.14 409.54 411.81 406.19
  C 408.13 404.71 402.25 403.93 399.10 406.81
  C 394.15 411.36 399.53 421.24 402.50 425.70
  Q 402.63 425.89 402.84 425.97
  Q 402.98 426.03 403.12 425.97
  Q 403.52 425.83 403.35 425.44
  Q 401.33 421.02 401.19 416.37
  A 1.83 1.82 -15.5 0 1 402.12 414.73
  Z
  M 553.58 411.81
  Q 539.66 414.62 532.94 426.81
  Q 532.57 427.47 533.09 428.01
  L 533.31 428.24
  A 0.42 0.42 0.0 0 0 533.99 428.14
  C 539.10 417.89 549.78 412.04 561.05 412.89
  C 563.48 413.07 565.60 413.97 567.81 414.88
  Q 568.23 415.05 568.62 414.82
  A 0.44 0.43 -41.6 0 0 568.67 414.11
  C 564.66 410.89 558.56 410.80 553.58 411.81
  Z
  M 427.19 433.03
  C 429.77 434.13 434.82 434.06 436.46 431.28
  C 439.23 426.58 433.14 421.92 429.48 420.35
  Q 429.02 420.15 428.53 420.26
  Q 426.81 420.62 427.57 419.67
  Q 427.28 417.33 423.81 417.65
  Q 418.29 418.16 417.70 423.27
  C 417.10 428.47 422.74 432.58 427.19 433.03
  Z"
/>
<path fill="#fefeff" d="
  M 690.82 427.10
  Q 680.82 440.76 664.28 442.96
  A 0.65 0.64 14.4 0 1 663.67 441.94
  Q 664.62 440.66 665.81 439.50
  Q 673.76 431.69 676.06 421.95
  A 2.66 2.66 0.0 0 0 675.03 419.18
  Q 654.04 404.04 653.16 378.52
  C 652.23 351.50 671.98 329.01 699.09 327.01
  Q 709.83 326.22 718.20 329.06
  C 735.52 334.93 748.74 349.77 751.61 368.01
  Q 755.24 391.07 740.46 409.20
  C 729.31 422.88 710.12 429.40 692.76 426.32
  A 1.99 1.99 0.0 0 0 690.82 427.10
  Z
  M 718.97 366.29
  Q 718.74 366.08 718.45 365.99
  Q 706.20 362.26 695.48 359.54
  Q 693.01 358.91 691.81 361.16
  Q 691.22 362.27 692.48 363.82
  A 2.61 2.54 77.7 0 0 693.75 364.66
  L 710.52 369.48
  Q 711.24 369.69 710.53 369.93
  Q 698.02 374.15 681.94 379.84
  Q 678.26 381.14 678.99 385.06
  Q 679.01 385.15 679.04 385.25
  Q 680.09 389.26 684.83 387.73
  Q 695.64 384.23 707.25 379.96
  Q 708.97 379.33 708.15 380.96
  L 703.48 390.35
  Q 702.14 393.04 704.30 395.12
  Q 704.66 395.46 705.12 395.67
  Q 708.27 397.07 710.13 394.16
  Q 718.28 381.42 722.01 373.37
  Q 724.01 369.06 719.38 366.59
  Q 719.16 366.46 718.97 366.29
  Z"
/>
<path fill="#fab29d" d="
  M 496.41 337.39
  Q 493.31 336.54 491.24 339.53
  Q 487.13 345.47 485.12 347.64
  Q 479.66 353.55 471.58 356.50
  Q 473.19 353.05 475.93 350.20
  Q 479.04 346.95 480.07 345.34
  C 484.33 338.69 486.34 331.68 493.60 327.50
  A 1.52 1.51 -24.9 0 1 495.78 328.29
  Q 497.33 332.58 496.41 337.39
  Z"
/>
<path fill="#d28373" d="
  M 534.22 332.69
  C 538.49 336.33 541.51 340.19 547.44 342.06
  Q 548.99 342.55 549.77 343.36
  Q 550.81 344.46 551.23 345.72
  L 549.00 345.59
  L 548.07 345.12
  Q 548.57 345.19 548.81 345.07
  Q 549.23 344.87 548.87 344.57
  C 545.99 342.14 541.40 342.68 538.86 345.63
  Q 535.69 349.29 533.56 353.41
  Q 533.49 353.54 533.45 353.68
  Q 533.40 353.87 533.42 354.04
  Q 533.47 354.66 532.86 354.55
  Q 532.23 354.45 532.16 355.00
  C 529.61 351.69 525.42 348.60 523.10 344.04
  Q 521.54 340.97 521.53 337.33
  Q 521.51 333.30 522.26 329.34
  L 534.22 332.69
  Z"
/>
<path fill="#fab29d" d="
  M 552.52 345.70
  L 551.23 345.72
  Q 550.81 344.46 549.77 343.36
  Q 548.99 342.55 547.44 342.06
  C 541.51 340.19 538.49 336.33 534.22 332.69
  Q 538.77 333.27 543.36 332.23
  Q 543.87 332.12 544.15 332.56
  L 552.52 345.70
  Z"
/>
<path fill="#d28373" d="
  M 488.72 379.88
  Q 496.51 375.60 499.97 373.46
  Q 503.95 371.00 502.34 367.41
  Q 500.98 362.54 495.85 362.47
  Q 496.31 360.76 495.72 358.11
  Q 496.88 357.97 497.41 358.57
  Q 498.51 359.82 500.15 359.99
  A 0.26 0.25 86.6 0 0 500.42 359.68
  Q 499.43 354.76 493.97 354.36
  Q 491.99 354.21 489.44 353.47
  Q 493.94 349.17 494.67 347.63
  C 496.94 342.86 500.88 339.22 505.67 337.07
  C 509.39 335.41 514.62 335.54 517.48 338.99
  C 531.18 355.54 515.68 384.52 494.26 384.07
  Q 489.97 383.97 488.72 379.88
  Z"
/>
<path fill="#324763" d="
  M 496.41 337.39
  Q 497.51 341.90 494.77 345.79
  Q 488.45 354.74 478.38 360.13
  C 475.62 361.60 471.66 363.50 469.04 361.03
  A 1.99 1.99 0.0 0 1 469.35 357.90
  L 471.58 356.50
  Q 479.66 353.55 485.12 347.64
  Q 487.13 345.47 491.24 339.53
  Q 493.31 336.54 496.41 337.39
  Z"
/>
<path fill="#324763" d="
  M 548.07 345.12
  Q 543.42 342.39 540.45 345.20
  Q 535.98 349.43 533.68 356.88
  Q 532.83 356.26 532.16 355.00
  Q 532.23 354.45 532.86 354.55
  Q 533.47 354.66 533.42 354.04
  Q 533.40 353.87 533.45 353.68
  Q 533.49 353.54 533.56 353.41
  Q 535.69 349.29 538.86 345.63
  C 541.40 342.68 545.99 342.14 548.87 344.57
  Q 549.23 344.87 548.81 345.07
  Q 548.57 345.19 548.07 345.12
  Z"
/>
<path fill="#fefeff" d="
  M 548.07 345.12
  L 549.00 345.59
  Q 551.36 349.13 554.76 351.10
  C 553.60 353.35 552.60 355.24 549.97 355.97
  Q 545.04 357.34 539.26 357.31
  Q 535.66 357.29 533.68 356.88
  Q 535.98 349.43 540.45 345.20
  Q 543.42 342.39 548.07 345.12
  Z
  M 549.7524 351.7776
  A 2.49 2.49 0.0 0 0 549.4516 348.2691
  L 547.5240 346.6459
  A 2.49 2.49 0.0 0 0 544.0155 346.9467
  L 542.9076 348.2624
  A 2.49 2.49 0.0 0 0 543.2084 351.7709
  L 545.1360 353.3941
  A 2.49 2.49 0.0 0 0 548.6445 353.0933
  L 549.7524 351.7776
  Z"
/>
<rect fill="#324763" x="-3.75" y="-3.35" transform="translate(546.33,350.02) rotate(40.1)" width="7.50" height="6.70" rx="2.49"/>
<path fill="#324763" d="
  M 489.44 353.47
  Q 491.99 354.21 493.97 354.36
  Q 499.43 354.76 500.42 359.68
  A 0.26 0.25 86.6 0 1 500.15 359.99
  Q 498.51 359.82 497.41 358.57
  Q 496.88 357.97 495.72 358.11
  Q 492.43 356.13 488.39 356.53
  Q 487.88 356.58 487.56 356.98
  Q 482.57 363.30 482.74 371.00
  Q 482.83 375.16 485.30 380.26
  Q 483.52 380.16 482.82 378.64
  Q 480.20 372.97 481.40 366.78
  Q 483.13 357.88 489.44 353.47
  Z"
/>
<path fill="#fefeff" d="
  M 495.72 358.11
  Q 496.31 360.76 495.85 362.47
  Q 490.93 365.89 495.53 370.21
  Q 497.27 371.85 499.44 370.84
  Q 501.60 369.84 502.34 367.41
  Q 503.95 371.00 499.97 373.46
  Q 496.51 375.60 488.72 379.88
  Q 487.54 381.72 485.30 380.26
  Q 482.83 375.16 482.74 371.00
  Q 482.57 363.30 487.56 356.98
  Q 487.88 356.58 488.39 356.53
  Q 492.43 356.13 495.72 358.11
  Z"
/>
<path fill="#324763" d="
  M 719.38 366.59
  Q 724.01 369.06 722.01 373.37
  Q 718.28 381.42 710.13 394.16
  Q 708.27 397.07 705.12 395.67
  Q 704.66 395.46 704.30 395.12
  Q 702.14 393.04 703.48 390.35
  L 708.15 380.96
  Q 708.97 379.33 707.25 379.96
  Q 695.64 384.23 684.83 387.73
  Q 680.09 389.26 679.04 385.25
  Q 679.01 385.15 678.99 385.06
  Q 678.26 381.14 681.94 379.84
  Q 698.02 374.15 710.53 369.93
  Q 711.24 369.69 710.52 369.48
  L 693.75 364.66
  A 2.61 2.54 77.7 0 1 692.48 363.82
  Q 691.22 362.27 691.81 361.16
  Q 693.01 358.91 695.48 359.54
  Q 706.20 362.26 718.45 365.99
  Q 718.74 366.08 718.97 366.29
  Q 719.16 366.46 719.38 366.59
  Z"
/>
<path fill="#324763" d="
  M 495.85 362.47
  Q 500.98 362.54 502.34 367.41
  Q 501.60 369.84 499.44 370.84
  Q 497.27 371.85 495.53 370.21
  Q 490.93 365.89 495.85 362.47
  Z"
/>
<ellipse fill="#fefeff" cx="0.00" cy="0.00" transform="translate(544.99,367.19) rotate(-11.6)" rx="2.01" ry="1.65"/>
<path fill="#d28373" d="
  M 558.56 376.25
  A 0.02 0.02 0.0 0 1 558.59 376.24
  L 558.64 376.26
  A 7.74 5.39 -62.3 0 1 559.81 385.62
  L 559.62 385.98
  A 7.74 5.39 -62.3 0 1 551.25 390.32
  L 551.21 390.30
  A 0.02 0.02 0.0 0 1 551.20 390.27
  L 558.56 376.25
  Z"
/>
<ellipse fill="#324763" cx="0.00" cy="0.00" transform="translate(541.91,389.87) rotate(96.8)" rx="3.63" ry="2.63"/>
<path fill="#fab29d" d="
  M 402.12 414.73
  A 1.83 1.82 -15.5 0 0 401.19 416.37
  Q 401.33 421.02 403.35 425.44
  Q 403.52 425.83 403.12 425.97
  Q 402.98 426.03 402.84 425.97
  Q 402.63 425.89 402.50 425.70
  C 399.53 421.24 394.15 411.36 399.10 406.81
  C 402.25 403.93 408.13 404.71 411.81 406.19
  Q 420.14 409.54 425.40 415.68
  Q 426.22 416.64 425.00 416.32
  Q 416.41 414.06 407.82 413.42
  Q 404.87 413.20 402.12 414.73
  Z"
/>
<path fill="#324763" d="
  M 553.58 411.81
  C 558.56 410.80 564.66 410.89 568.67 414.11
  A 0.44 0.43 -41.6 0 1 568.62 414.82
  Q 568.23 415.05 567.81 414.88
  C 565.60 413.97 563.48 413.07 561.05 412.89
  C 549.78 412.04 539.10 417.89 533.99 428.14
  A 0.42 0.42 0.0 0 1 533.31 428.24
  L 533.09 428.01
  Q 532.57 427.47 532.94 426.81
  Q 539.66 414.62 553.58 411.81
  Z"
/>
<path fill="#324763" d="
  M 427.57 419.67
  C 424.70 419.10 418.94 419.13 419.22 423.52
  C 419.55 428.63 423.72 430.21 427.19 433.03
  C 422.74 432.58 417.10 428.47 417.70 423.27
  Q 418.29 418.16 423.81 417.65
  Q 427.28 417.33 427.57 419.67
  Z"
/>
<path fill="#d28373" d="
  M 427.57 419.67
  Q 426.81 420.62 428.53 420.26
  Q 429.02 420.15 429.48 420.35
  C 433.14 421.92 439.23 426.58 436.46 431.28
  C 434.82 434.06 429.77 434.13 427.19 433.03
  C 423.72 430.21 419.55 428.63 419.22 423.52
  C 418.94 419.13 424.70 419.10 427.57 419.67
  Z"
/>
<path fill="#fab29d" d="
  M 589.30 422.07
  Q 594.88 427.07 599.92 429.57
  Q 603.59 431.39 606.64 433.32
  Q 621.77 442.89 637.32 450.30
  Q 641.39 452.24 644.98 455.25
  C 648.69 458.36 649.00 463.03 648.43 467.54
  Q 647.38 475.84 641.02 480.25
  Q 636.68 483.26 632.82 486.58
  Q 622.94 495.05 613.03 503.63
  Q 612.94 503.71 612.84 503.62
  L 612.84 503.62
  Q 612.74 503.52 612.83 503.42
  Q 613.60 502.53 614.51 502.00
  Q 614.73 501.87 614.47 501.86
  Q 614.29 501.85 614.16 501.96
  Q 607.90 506.89 602.88 511.71
  Q 602.46 512.11 602.29 512.68
  Q 602.20 512.99 601.94 513.21
  Q 594.87 519.18 587.61 525.01
  Q 589.62 521.79 590.67 518.22
  Q 591.65 514.92 592.79 513.33
  Q 594.62 510.77 597.20 508.20
  Q 606.02 499.41 609.99 495.73
  Q 612.93 493.00 613.78 490.99
  Q 616.37 486.30 619.57 481.33
  C 622.39 476.96 621.14 472.22 617.72 468.33
  Q 614.25 464.38 611.79 460.00
  A 0.85 0.84 53.1 0 1 611.93 458.99
  Q 612.22 458.69 612.64 458.70
  Q 613.03 458.71 613.32 458.97
  Q 618.87 463.92 624.66 468.56
  C 630.84 473.53 639.07 478.35 644.16 468.34
  Q 644.62 467.44 644.08 466.59
  C 642.66 464.35 641.03 462.77 638.82 461.32
  Q 631.94 456.81 629.20 454.79
  Q 616.70 445.53 603.81 436.79
  Q 599.65 433.97 597.32 433.43
  C 592.33 432.27 588.05 434.64 584.19 438.01
  Q 586.03 435.04 582.30 437.08
  C 580.67 437.97 579.03 439.62 577.87 441.02
  Q 573.58 446.13 568.95 451.99
  Q 564.42 457.70 560.70 464.39
  Q 560.03 465.59 560.70 465.53
  C 555.90 471.44 548.62 475.38 541.93 478.66
  Q 530.60 484.21 522.60 489.84
  Q 516.25 494.30 513.29 496.00
  Q 516.36 490.81 520.59 486.66
  A 1.23 1.23 0.0 0 0 519.56 484.57
  Q 519.42 484.59 519.26 484.61
  Q 524.11 482.22 526.12 480.12
  C 541.95 463.55 556.59 444.84 573.11 427.97
  C 577.58 423.40 582.63 419.85 589.30 422.07
  Z"
/>
<path fill="#fcc2af" d="
  M 613.78 490.99
  Q 611.94 491.86 610.74 492.01
  C 608.09 492.33 600.30 493.28 598.12 491.44
  A 1.46 1.44 17.4 0 1 597.61 490.48
  C 597.20 486.68 601.69 484.00 604.40 481.94
  A 1.36 1.36 0.0 0 0 604.76 480.21
  Q 603.72 478.30 602.15 476.97
  A 0.83 0.83 0.0 0 0 600.86 477.26
  C 594.77 490.82 588.93 505.12 581.16 517.67
  Q 576.89 524.57 573.23 528.24
  Q 567.19 534.30 560.93 540.55
  C 556.65 544.83 556.86 548.85 555.45 553.95
  Q 552.89 564.15 551.06 574.52
  Q 550.02 580.38 544.91 599.64
  Q 544.21 602.27 543.47 608.39
  L 538.70 630.26
  Q 533.32 627.54 527.38 629.25
  Q 526.64 629.46 526.28 630.14
  Q 524.09 634.19 522.70 639.95
  Q 518.97 655.35 515.09 670.72
  Q 512.98 679.05 511.08 686.13
  Q 503.72 713.56 496.92 739.19
  Q 492.18 757.04 487.83 770.64
  Q 481.56 790.21 467.12 809.41
  Q 459.70 819.26 447.25 824.29
  Q 412.45 838.37 376.53 851.99
  Q 373.33 853.21 370.02 853.84
  Q 369.56 853.93 369.18 853.65
  C 365.05 850.72 364.72 845.83 364.78 841.11
  Q 364.93 828.90 367.59 817.24
  Q 369.44 807.06 373.44 797.80
  C 375.23 793.67 378.32 788.83 380.51 784.11
  Q 390.73 769.33 401.12 754.38
  Q 403.24 751.31 404.96 747.97
  Q 382.11 732.79 405.06 748.08
  Q 405.19 748.17 405.27 748.04
  Q 408.58 743.42 411.54 737.93
  C 429.63 704.33 443.82 670.32 457.06 633.39
  Q 457.85 631.17 458.61 628.91
  Q 459.64 625.81 461.04 622.88
  L 467.16 605.28
  Q 467.64 604.20 468.25 602.38
  Q 472.85 588.63 477.25 574.80
  Q 480.56 564.35 488.87 548.48
  Q 501.43 520.06 506.93 507.95
  Q 509.47 502.38 513.29 496.00
  Q 516.25 494.30 522.60 489.84
  Q 530.60 484.21 541.93 478.66
  C 548.62 475.38 555.90 471.44 560.70 465.53
  Q 562.18 464.48 564.12 462.12
  C 570.76 454.05 576.93 445.53 584.19 438.01
  C 588.05 434.64 592.33 432.27 597.32 433.43
  Q 599.65 433.97 603.81 436.79
  Q 616.70 445.53 629.20 454.79
  Q 631.94 456.81 638.82 461.32
  C 641.03 462.77 642.66 464.35 644.08 466.59
  Q 644.62 467.44 644.16 468.34
  C 639.07 478.35 630.84 473.53 624.66 468.56
  Q 618.87 463.92 613.32 458.97
  Q 613.03 458.71 612.64 458.70
  Q 612.22 458.69 611.93 458.99
  A 0.85 0.84 53.1 0 0 611.79 460.00
  Q 614.25 464.38 617.72 468.33
  C 621.14 472.22 622.39 476.96 619.57 481.33
  Q 616.37 486.30 613.78 490.99
  Z"
/>
<path fill="#d28373" d="
  M 584.19 438.01
  C 576.93 445.53 570.76 454.05 564.12 462.12
  Q 562.18 464.48 560.70 465.53
  Q 560.03 465.59 560.70 464.39
  Q 564.42 457.70 568.95 451.99
  Q 573.58 446.13 577.87 441.02
  C 579.03 439.62 580.67 437.97 582.30 437.08
  Q 586.03 435.04 584.19 438.01
  Z"
/>
<path fill="#aebfd7" d="
  M 227.24 593.42
  Q 226.68 582.19 226.34 571.19
  C 226.08 562.57 227.82 554.08 238.01 552.93
  Q 243.37 552.32 248.78 556.39
  C 260.88 565.49 251.48 586.75 247.07 597.57
  Q 244.00 605.10 240.45 613.53
  Q 239.58 615.61 240.79 617.55
  Q 250.56 633.25 258.99 645.69
  A 0.06 0.06 0.0 0 1 258.97 645.77
  L 258.72 645.94
  Q 258.56 646.05 258.44 645.89
  Q 247.23 629.40 240.62 619.14
  Q 239.29 617.08 237.16 616.38
  Q 236.68 616.23 236.37 615.83
  Q 235.57 614.85 235.10 613.78
  C 231.49 605.62 228.17 597.70 223.42 589.50
  Q 218.63 581.23 213.94 571.32
  A 0.87 0.87 0.0 0 0 212.40 571.25
  C 209.08 577.04 205.41 584.10 199.04 586.35
  Q 194.35 588.01 187.74 587.81
  Q 175.82 587.45 166.18 584.31
  Q 160.19 582.36 157.40 576.73
  C 153.73 569.36 156.01 560.51 165.25 559.43
  C 168.64 559.03 172.54 559.93 175.63 561.28
  Q 181.97 564.05 186.52 564.62
  Q 192.08 565.32 198.68 565.47
  C 202.76 565.56 206.58 566.54 210.39 567.96
  Q 211.05 568.21 211.74 568.17
  A 0.45 0.45 0.0 0 0 212.09 567.49
  C 209.30 563.07 206.73 558.76 204.65 553.86
  Q 200.54 544.16 195.99 533.76
  C 190.01 520.08 184.53 506.91 180.60 493.06
  Q 178.59 485.99 174.62 478.42
  C 172.18 473.78 170.08 468.98 168.18 464.01
  C 166.03 458.39 165.18 451.40 171.18 448.12
  C 178.74 443.99 186.26 448.23 186.03 456.96
  Q 185.86 463.30 186.32 469.66
  C 186.99 479.09 186.22 488.06 183.23 496.40
  Q 182.92 497.25 183.21 498.05
  Q 191.55 521.30 199.27 539.37
  Q 200.18 541.49 200.37 539.19
  Q 200.60 536.44 200.87 533.19
  Q 201.90 520.98 206.70 509.91
  C 208.91 504.81 213.51 501.43 219.00 502.99
  C 225.47 504.84 224.97 513.12 222.92 518.30
  Q 217.32 532.52 213.77 546.04
  C 212.92 549.25 211.37 552.29 210.28 555.49
  C 209.72 557.15 207.88 558.54 208.94 560.44
  C 215.08 571.41 220.53 582.71 226.55 593.61
  A 0.37 0.37 0.0 0 0 227.24 593.42
  Z"
/>
<path fill="#d28373" d="
  M 519.26 484.61
  Q 519.42 484.59 519.56 484.57
  A 1.23 1.23 0.0 0 1 520.59 486.66
  Q 516.36 490.81 513.29 496.00
  Q 509.47 502.38 506.93 507.95
  Q 501.43 520.06 488.87 548.48
  Q 485.31 546.53 482.61 543.16
  Q 465.05 521.22 451.07 499.42
  Q 448.73 495.77 446.32 492.36
  L 445.87 488.30
  L 440.51 456.94
  L 447.24 455.51
  A 0.60 0.59 -17.3 0 1 447.91 455.86
  C 452.43 466.71 462.14 476.81 471.55 482.87
  Q 481.64 489.36 493.74 488.20
  Q 506.65 486.96 519.26 484.61
  Z"
/>
<path fill="#d28373" d="
  M 613.78 490.99
  Q 612.93 493.00 609.99 495.73
  Q 606.02 499.41 597.20 508.20
  Q 594.62 510.77 592.79 513.33
  Q 591.65 514.92 590.67 518.22
  Q 589.62 521.79 587.61 525.01
  Q 584.29 528.21 580.96 531.47
  Q 572.73 539.51 570.02 551.54
  Q 563.29 554.50 556.24 555.34
  Q 555.29 555.45 555.45 553.95
  C 556.86 548.85 556.65 544.83 560.93 540.55
  Q 567.19 534.30 573.23 528.24
  Q 576.89 524.57 581.16 517.67
  C 588.93 505.12 594.77 490.82 600.86 477.26
  A 0.83 0.83 0.0 0 1 602.15 476.97
  Q 603.72 478.30 604.76 480.21
  A 1.36 1.36 0.0 0 1 604.40 481.94
  C 601.69 484.00 597.20 486.68 597.61 490.48
  A 1.46 1.44 17.4 0 0 598.12 491.44
  C 600.30 493.28 608.09 492.33 610.74 492.01
  Q 611.94 491.86 613.78 490.99
  Z"
/>
<path fill="#fab29d" d="
  M 488.87 548.48
  Q 480.56 564.35 477.25 574.80
  Q 472.85 588.63 468.25 602.38
  Q 467.64 604.20 467.16 605.28
  Q 444.04 586.38 425.72 562.45
  Q 430.39 560.40 440.78 555.28
  Q 444.41 553.49 445.40 550.02
  Q 446.65 545.63 447.03 537.77
  Q 447.59 526.53 447.46 513.25
  C 447.40 507.45 446.36 499.61 446.32 492.36
  Q 448.73 495.77 451.07 499.42
  Q 465.05 521.22 482.61 543.16
  Q 485.31 546.53 488.87 548.48
  Z"
/>
<path fill="#aebfd7" d="
  M 754.31 575.83
  Q 753.24 579.91 751.34 584.01
  Q 751.28 584.12 751.17 584.08
  L 751.16 584.08
  Q 751.04 584.03 751.08 583.90
  Q 751.98 580.88 752.84 577.93
  Q 753.59 575.37 752.86 572.38
  Q 751.14 565.38 748.29 559.87
  C 746.29 556.01 743.95 552.10 744.43 547.68
  Q 745.44 538.55 746.46 529.06
  A 1.53 1.52 8.3 0 1 748.27 527.72
  Q 760.81 530.14 767.53 540.02
  C 776.25 552.84 768.02 567.69 755.65 574.16
  A 2.65 2.64 -6.3 0 0 754.31 575.83
  Z"
/>
<path fill="#aebfd7" d="
  M 73.47 555.07
  C 68.67 555.23 65.48 559.17 62.61 562.66
  C 59.25 566.74 55.22 560.23 54.41 557.56
  C 50.93 546.10 59.65 535.22 72.00 539.31
  C 79.67 541.85 86.25 547.25 92.63 552.51
  A 1.39 1.39 0.0 0 1 92.12 554.92
  Q 90.28 555.43 88.19 555.31
  Q 79.84 554.85 73.47 555.07
  Z"
/>
<path fill="#aebfd7" d="
  M 723.37 549.32
  C 727.35 544.74 730.87 546.26 733.84 550.65
  Q 742.57 563.55 743.35 578.03
  C 743.70 584.58 740.87 591.69 738.10 597.49
  Q 737.66 598.42 736.87 599.12
  Q 735.72 600.13 734.78 598.91
  Q 729.34 591.84 724.80 582.49
  Q 718.31 569.12 720.51 555.30
  Q 721.04 552.01 723.37 549.32
  Z"
/>
<path fill="#fab29d" d="
  M 570.02 551.54
  Q 569.88 554.60 569.39 558.50
  Q 568.67 564.21 574.31 565.26
  Q 578.77 566.09 582.84 566.76
  A 0.79 0.76 75.8 0 1 583.34 567.07
  Q 583.48 567.27 583.49 567.38
  Q 568.37 592.65 543.47 608.39
  Q 544.21 602.27 544.91 599.64
  Q 550.02 580.38 551.06 574.52
  Q 552.89 564.15 555.45 553.95
  Q 555.29 555.45 556.24 555.34
  Q 563.29 554.50 570.02 551.54
  Z"
/>
<path fill="#324763" d="
  M 425.72 562.45
  Q 444.04 586.38 467.16 605.28
  L 461.04 622.88
  Q 457.97 621.73 456.79 620.97
  Q 443.37 612.32 431.19 600.56
  Q 416.71 586.59 405.38 571.08
  L 425.72 562.45
  Z"
/>
<path fill="#324763" d="
  M 604.52 572.67
  Q 602.89 583.19 597.10 592.37
  Q 592.02 600.41 586.43 606.38
  C 575.71 617.80 563.10 627.93 549.25 635.24
  Q 543.70 638.17 537.01 640.19
  Q 536.53 639.64 536.79 638.52
  Q 537.74 634.47 538.70 630.26
  L 543.47 608.39
  Q 568.37 592.65 583.49 567.38
  L 604.52 572.67
  Z"
/>
<path fill="#fefeff" d="
  M 405.38 571.08
  Q 416.71 586.59 431.19 600.56
  Q 443.37 612.32 456.79 620.97
  Q 457.97 621.73 461.04 622.88
  Q 459.64 625.81 458.61 628.91
  Q 457.85 631.17 457.06 633.39
  C 443.82 670.32 429.63 704.33 411.54 737.93
  Q 408.58 743.42 405.27 748.04
  Q 405.19 748.17 405.06 748.08
  Q 382.11 732.79 404.96 747.97
  Q 405.60 744.93 405.74 741.75
  C 406.54 723.52 404.67 706.80 396.54 689.50
  Q 394.08 684.27 384.76 669.28
  Q 384.93 669.18 385.10 669.08
  L 382.03 648.42
  Q 378.10 618.19 360.00 593.75
  Q 356.55 589.08 352.85 584.58
  C 353.23 584.31 353.65 583.95 354.11 583.86
  Q 365.52 581.56 376.92 579.18
  Q 391.89 576.06 405.38 571.08
  Z"
/>
<path fill="#aebfd7" d="
  M 50.80 585.53
  C 44.49 585.19 41.40 590.00 39.18 595.01
  A 1.39 1.38 -74.3 0 1 37.74 595.82
  Q 36.65 595.69 36.21 594.64
  C 34.06 589.52 33.43 580.68 37.09 576.02
  C 44.02 567.21 55.36 574.34 61.81 579.27
  C 63.17 580.31 65.24 581.89 64.41 583.85
  Q 63.54 585.92 61.14 585.89
  Q 56.06 585.82 50.80 585.53
  Z"
/>
<path fill="#aebfd7" d="
  M 709.02 604.54
  L 690.19 595.43
  Q 688.92 589.90 689.00 584.97
  Q 689.04 582.15 690.18 580.84
  C 693.15 577.42 697.27 579.99 699.31 582.95
  Q 704.44 590.41 707.95 599.56
  C 708.58 601.21 708.56 602.82 709.02 604.54
  Z"
/>
<path fill="#639af7" d="
  M 690.19 595.43
  L 709.02 604.54
  Q 708.98 604.62 709.06 604.81
  Q 709.10 604.90 709.19 604.95
  Q 716.11 609.53 722.65 614.60
  Q 733.80 623.24 742.59 636.06
  L 748.54 645.81
  L 762.15 680.32
  L 771.75 705.63
  L 778.64 723.55
  L 783.88 738.01
  L 805.87 800.49
  Q 790.48 797.54 775.35 803.11
  Q 774.80 802.40 773.84 803.37
  Q 773.25 803.96 772.74 804.19
  Q 758.18 810.83 739.01 818.32
  Q 716.96 826.93 698.54 832.74
  Q 688.24 835.99 677.69 839.14
  C 677.42 828.76 677.41 818.34 676.57 808.01
  Q 675.69 797.17 674.88 786.18
  Q 674.55 781.66 675.35 777.32
  Q 676.49 771.19 677.09 765.41
  Q 678.83 748.74 679.38 731.58
  Q 679.46 729.00 679.33 726.50
  Q 679.20 724.00 677.58 724.97
  L 677.08 719.96
  Q 673.92 699.58 670.70 679.23
  C 669.24 670.00 668.23 660.74 666.98 651.50
  Q 664.17 630.73 655.87 609.30
  Q 650.75 596.05 645.73 582.87
  Q 645.99 582.18 646.23 582.22
  Q 651.95 583.11 657.53 584.56
  Q 673.69 588.76 690.19 595.43
  Z"
/>
<path fill="#81abf3" d="
  M 352.85 584.58
  Q 356.55 589.08 360.00 593.75
  Q 378.10 618.19 382.03 648.42
  Q 381.12 647.89 379.37 647.67
  Q 378.85 647.60 378.62 647.14
  Q 374.74 639.30 368.43 632.88
  A 0.46 0.46 0.0 0 0 367.64 633.16
  L 366.79 641.58
  Q 371.56 651.50 377.60 660.21
  C 379.96 663.61 381.76 667.18 384.22 670.54
  A 0.36 0.36 0.0 0 0 384.84 670.47
  Q 385.01 670.09 384.76 669.28
  Q 394.08 684.27 396.54 689.50
  C 404.67 706.80 406.54 723.52 405.74 741.75
  Q 405.60 744.93 404.96 747.97
  Q 403.24 751.31 401.12 754.38
  Q 390.73 769.33 380.51 784.11
  Q 378.02 785.73 375.67 790.43
  Q 344.33 790.70 312.99 794.96
  Q 296.06 797.27 279.69 801.81
  Q 266.12 806.70 254.51 815.14
  Q 253.45 814.97 253.46 814.25
  C 254.21 779.61 254.65 753.10 255.96 727.72
  L 256.99 706.10
  Q 257.43 686.61 259.78 668.28
  Q 261.17 663.30 260.95 658.72
  C 261.85 655.83 262.34 652.33 262.90 650.19
  Q 266.11 637.89 272.88 627.07
  Q 275.56 622.78 278.37 618.54
  Q 280.38 617.37 282.73 614.49
  C 285.09 611.60 289.30 608.51 293.01 606.18
  Q 299.23 602.27 305.71 598.32
  Q 327.65 588.44 351.89 584.41
  Q 352.12 584.38 352.36 584.45
  Q 352.63 584.53 352.85 584.58
  Z"
/>
<path fill="#aebfd7" d="
  M 305.71 598.32
  Q 299.23 602.27 293.01 606.18
  C 289.30 608.51 285.09 611.60 282.73 614.49
  Q 280.38 617.37 278.37 618.54
  Q 279.09 609.49 279.87 600.46
  Q 280.38 594.59 281.45 592.26
  C 285.23 584.00 296.02 583.00 301.09 590.69
  Q 302.83 593.33 304.07 597.91
  Q 304.26 598.62 305.71 598.32
  Z"
/>
<path fill="#aebfd7" d="
  M 742.06 615.06
  C 750.34 603.60 763.04 592.75 776.47 591.22
  C 785.35 590.21 790.42 597.07 786.46 605.28
  C 783.30 611.82 777.58 615.65 771.23 618.72
  C 761.92 623.22 752.23 620.91 743.30 616.64
  Q 742.66 616.33 742.14 615.85
  Q 741.75 615.49 742.06 615.06
  Z"
/>
<path fill="#aebfd7" d="
  M 748.54 645.81
  L 742.59 636.06
  Q 747.54 632.27 753.07 629.96
  Q 758.93 627.51 764.34 627.50
  C 775.52 627.48 786.53 630.46 794.17 638.49
  C 797.70 642.20 800.07 648.80 795.18 652.42
  C 789.76 656.43 778.80 655.63 772.37 654.43
  Q 760.45 652.20 748.54 645.81
  Z"
/>
<path fill="#fab29d" d="
  M 538.70 630.26
  Q 537.74 634.47 536.79 638.52
  Q 536.53 639.64 537.01 640.19
  Q 536.67 640.13 536.53 640.75
  Q 534.11 652.10 531.58 663.42
  Q 514.93 737.76 505.59 780.35
  Q 500.23 804.80 493.50 827.42
  Q 489.88 839.40 488.67 842.93
  Q 480.86 865.77 465.70 889.32
  Q 465.65 889.41 461.79 894.77
  Q 458.49 899.36 456.70 904.71
  Q 455.38 906.32 453.91 908.39
  Q 440.73 926.87 427.49 945.74
  C 422.30 953.13 415.82 960.39 407.29 964.29
  Q 394.92 969.94 380.71 966.71
  Q 353.99 960.65 335.17 939.88
  Q 321.24 924.52 310.24 906.51
  Q 306.61 900.58 304.69 896.47
  Q 299.69 885.89 298.16 881.63
  Q 295.64 874.58 292.15 862.70
  C 289.00 851.97 286.88 841.14 284.14 830.27
  Q 283.56 827.96 283.36 825.49
  Q 283.32 825.07 283.15 824.69
  L 282.91 824.18
  L 283.05 823.94
  Q 283.15 823.77 283.12 823.57
  L 280.72 808.85
  Q 310.12 801.86 341.25 800.55
  Q 357.85 799.86 370.76 800.00
  Q 366.99 807.99 366.61 815.75
  Q 366.57 816.63 367.59 817.24
  Q 364.93 828.90 364.78 841.11
  C 364.72 845.83 365.05 850.72 369.18 853.65
  Q 369.56 853.93 370.02 853.84
  Q 373.33 853.21 376.53 851.99
  Q 412.45 838.37 447.25 824.29
  Q 459.70 819.26 467.12 809.41
  Q 481.56 790.21 487.83 770.64
  Q 492.18 757.04 496.92 739.19
  Q 503.72 713.56 511.08 686.13
  Q 512.98 679.05 515.09 670.72
  Q 518.97 655.35 522.70 639.95
  Q 524.09 634.19 526.28 630.14
  Q 526.64 629.46 527.38 629.25
  Q 533.32 627.54 538.70 630.26
  Z"
/>
<path fill="#639af7" d="
  M 382.03 648.42
  L 385.10 669.08
  Q 384.28 668.76 384.00 667.88
  Q 383.86 667.44 383.61 667.06
  L 366.79 641.58
  L 367.64 633.16
  A 0.46 0.46 0.0 0 1 368.43 632.88
  Q 374.74 639.30 378.62 647.14
  Q 378.85 647.60 379.37 647.67
  Q 381.12 647.89 382.03 648.42
  Z"
/>
<path fill="#aebfd7" d="
  M 260.95 658.72
  Q 261.17 663.30 259.78 668.28
  Q 259.97 666.43 257.22 667.21
  Q 251.58 668.82 245.96 670.53
  C 236.81 673.32 229.51 673.89 220.05 673.02
  Q 207.79 671.90 199.71 666.23
  C 194.16 662.33 192.42 653.54 192.85 647.06
  Q 193.33 639.87 199.43 637.59
  C 210.20 633.55 219.30 640.11 228.21 645.11
  C 234.31 648.52 241.40 650.63 248.06 652.67
  Q 252.79 654.12 260.95 658.72
  Z"
/>
<path fill="#324763" d="
  M 385.10 669.08
  Q 384.93 669.18 384.76 669.28
  Q 385.01 670.09 384.84 670.47
  A 0.36 0.36 0.0 0 1 384.22 670.54
  C 381.76 667.18 379.96 663.61 377.60 660.21
  Q 371.56 651.50 366.79 641.58
  L 383.61 667.06
  Q 383.86 667.44 384.00 667.88
  Q 384.28 668.76 385.10 669.08
  Z"
/>
<path fill="#e2e8ef" d="
  M 659.26 690.51
  Q 658.93 689.67 658.76 688.48
  Q 658.60 687.42 657.74 686.69
  Q 658.69 686.14 658.69 685.47
  Q 658.64 676.83 658.12 650.62
  Q 658.11 650.41 658.32 650.42
  L 658.76 650.43
  Q 658.98 650.43 659.01 650.65
  Q 661.53 665.83 661.16 677.49
  Q 661.02 682.03 659.26 690.51
  Z"
/>
<path fill="#aebfd7" d="
  M 771.75 705.63
  L 762.15 680.32
  Q 767.46 677.64 774.73 676.23
  C 784.28 674.37 798.26 675.99 803.54 685.32
  C 805.75 689.22 804.19 692.88 800.76 695.24
  Q 792.79 700.71 784.01 703.00
  Q 781.24 703.72 771.75 705.63
  Z"
/>
<path fill="#324763" d="
  M 657.74 686.69
  Q 658.60 687.42 658.76 688.48
  Q 658.93 689.67 659.26 690.51
  Q 663.73 710.82 664.89 717.39
  Q 669.92 746.07 673.59 775.69
  A 0.29 0.28 65.5 0 0 674.06 775.87
  Q 674.33 775.64 674.39 775.18
  Q 675.69 765.76 676.11 756.32
  Q 677.33 746.56 677.37 739.50
  Q 677.44 728.24 677.58 724.97
  Q 679.20 724.00 679.33 726.50
  Q 679.46 729.00 679.38 731.58
  Q 678.83 748.74 677.09 765.41
  Q 676.49 771.19 675.35 777.32
  Q 674.55 781.66 674.88 786.18
  Q 675.69 797.17 676.57 808.01
  C 677.41 818.34 677.42 828.76 677.69 839.14
  L 677.72 851.04
  L 677.45 854.68
  L 676.60 876.35
  Q 676.56 877.20 675.73 877.33
  L 675.44 877.38
  A 0.53 0.53 0.0 0 1 674.83 876.82
  L 676.20 853.98
  Q 676.99 819.01 672.88 784.95
  Q 672.59 780.85 671.62 772.76
  Q 666.54 730.44 657.03 688.90
  Q 656.47 686.44 657.74 686.69
  Z"
/>
<path fill="#aebfd7" d="
  M 256.99 706.10
  L 255.96 727.72
  Q 256.20 726.55 255.93 725.58
  Q 255.79 725.08 255.28 725.09
  Q 246.75 725.24 238.38 722.69
  C 232.42 720.87 228.05 717.23 228.31 710.26
  C 228.56 703.28 236.13 702.33 241.51 703.02
  Q 249.08 703.99 256.99 706.10
  Z"
/>
<ellipse fill="#324763" cx="0.00" cy="0.00" transform="translate(607.46,724.88) rotate(88.5)" rx="13.09" ry="7.39"/>
<path fill="#e2e8ef" d="
  M 677.58 724.97
  Q 677.44 728.24 677.37 739.50
  Q 677.33 746.56 676.11 756.32
  Q 675.32 749.99 674.76 743.70
  C 673.99 735.23 672.07 727.31 677.08 719.96
  L 677.58 724.97
  Z"
/>
<path fill="#aebfd7" d="
  M 783.88 738.01
  L 778.64 723.55
  Q 782.28 724.41 784.42 727.14
  Q 785.67 728.73 785.86 730.82
  C 786.13 733.79 784.28 735.65 783.88 738.01
  Z"
/>
<path fill="#324763" d="
  M 380.51 784.11
  C 378.32 788.83 375.23 793.67 373.44 797.80
  Q 369.44 807.06 367.59 817.24
  Q 366.57 816.63 366.61 815.75
  Q 366.99 807.99 370.76 800.00
  L 375.67 790.43
  Q 378.02 785.73 380.51 784.11
  Z"
/>
<path fill="#e2e8ef" d="
  M 676.20 853.98
  Q 658.60 855.19 646.63 860.13
  Q 622.00 870.30 601.17 876.55
  Q 594.51 878.54 588.19 879.67
  Q 588.01 879.70 588.16 879.61
  Q 588.23 879.57 588.30 879.55
  C 609.34 875.14 628.94 864.70 646.10 851.99
  C 651.93 847.67 657.56 842.55 662.29 837.25
  Q 664.97 834.24 665.80 829.08
  Q 668.00 815.42 669.45 803.58
  C 669.92 799.77 670.97 796.00 671.60 792.18
  C 671.92 790.23 672.99 787.62 672.88 784.95
  Q 676.99 819.01 676.20 853.98
  Z"
/>
<path fill="#d28373" d="
  M 375.67 790.43
  L 370.76 800.00
  Q 357.85 799.86 341.25 800.55
  Q 310.12 801.86 280.72 808.85
  L 279.69 801.81
  Q 296.06 797.27 312.99 794.96
  Q 344.33 790.70 375.67 790.43
  Z"
/>
<path fill="#324763" d="
  M 805.87 800.49
  Q 795.90 812.23 781.87 819.28
  Q 781.78 819.39 781.46 819.13
  Q 781.30 819.00 781.22 818.78
  Q 778.09 810.97 775.35 803.11
  Q 790.48 797.54 805.87 800.49
  Z"
/>
<path fill="#324763" d="
  M 279.69 801.81
  L 280.72 808.85
  L 283.12 823.57
  Q 283.15 823.77 283.05 823.94
  L 282.91 824.18
  Q 268.33 821.72 254.54 816.02
  A 0.49 0.45 87.6 0 1 254.27 815.75
  Q 254.03 815.14 254.51 815.14
  Q 266.12 806.70 279.69 801.81
  Z"
/>
<path fill="#d28373" d="
  M 775.35 803.11
  Q 778.09 810.97 781.22 818.78
  Q 781.30 819.00 781.46 819.13
  Q 781.78 819.39 781.87 819.28
  Q 782.02 819.35 781.48 819.70
  Q 777.71 820.73 766.62 824.33
  Q 732.36 835.44 680.57 851.09
  Q 679.75 851.34 677.72 851.04
  L 677.69 839.14
  Q 688.24 835.99 698.54 832.74
  Q 716.96 826.93 739.01 818.32
  Q 758.18 810.83 772.74 804.19
  Q 773.25 803.96 773.84 803.37
  Q 774.80 802.40 775.35 803.11
  Z"
/>
<path fill="#aebfd7" d="
  M 456.70 904.71
  Q 458.49 899.36 461.79 894.77
  Q 465.65 889.41 465.70 889.32
  Q 480.86 865.77 488.67 842.93
  Q 489.88 839.40 493.50 827.42
  Q 500.08 827.17 504.59 824.63
  C 511.15 820.96 516.67 813.58 522.04 807.92
  Q 524.21 805.62 527.00 804.29
  Q 527.50 804.05 528.04 804.18
  C 534.89 805.94 527.70 815.87 525.70 818.73
  Q 518.60 828.91 513.05 838.40
  Q 507.84 847.29 499.47 855.35
  Q 493.11 861.47 492.74 869.40
  C 492.38 877.24 499.73 880.46 506.47 880.90
  Q 516.08 881.51 527.00 882.43
  A 0.16 0.16 0.0 0 1 527.14 882.65
  L 527.04 882.95
  A 0.61 0.60 -80.9 0 1 526.51 883.34
  Q 493.68 885.00 465.65 900.20
  Q 463.86 901.17 461.89 902.38
  Q 459.54 903.83 456.70 904.71
  Z"
/>
<path fill="#fab29d" d="
  M 781.48 819.70
  Q 784.71 828.22 787.21 836.97
  Q 791.26 851.07 795.04 869.69
  Q 795.78 873.36 794.98 876.28
  Q 793.52 877.18 791.98 877.23
  C 771.00 877.95 751.52 874.82 731.19 869.30
  Q 720.96 866.52 700.30 859.70
  Q 690.86 856.59 677.45 854.68
  L 677.72 851.04
  Q 679.75 851.34 680.57 851.09
  Q 732.36 835.44 766.62 824.33
  Q 777.71 820.73 781.48 819.70
  Z"
/>
</svg>
